<?xml version="1.0" encoding="utf-8"?>
<!-- Generator: Adobe Illustrator 27.5.0, SVG Export Plug-In . SVG Version: 6.00 Build 0)  -->
<svg version="1.1" xmlns="http://www.w3.org/2000/svg" xmlns:xlink="http://www.w3.org/1999/xlink" x="0px" y="0px"
	 viewBox="0 0 500 500" style="enable-background:new 0 0 500 500;" xml:space="preserve">
<g id="OBJECTS">
	<path style="fill:#CBDCF4;" d="M474.901,341.277c-29.46,115.896-168.16,178.857-240.87,60.727
		c-48.681-78.938-94.113-73.559-157.653-123.283C-33.068,174.946,58.857,12.057,201.022,20.39
		C366.461,21.334,522.422,170.295,474.901,341.277z"/>
	<g>
		<g>
			<g>
				<polygon style="fill:#FF5F5F;" points="407.969,404.368 360.62,361.576 337.254,383.591 326.651,372.337 360.4,340.536 
					405.641,381.421 442.12,331.768 454.582,340.923 				"/>
			</g>
			<g>
				<g>
					<polygon style="fill:#FF5F5F;" points="459.57,351.027 463.462,315.78 430.989,330.029 					"/>
				</g>
			</g>
		</g>
		<g>
			<g>
				<g>
					<path style="fill:#2ed573;" d="M319.948,96.065l0,47.837c0,10.284-8.414,18.699-18.699,18.699h-37.148l5.095,22.485
						L235.275,162.6h-52.558c-10.284,0-18.699-8.414-18.699-18.699V96.065c0-10.284,8.414-18.699,18.699-18.699H301.25
						C311.534,77.366,319.948,85.78,319.948,96.065z"/>
				</g>
			</g>
			<path style="fill:#FFFFFF;" d="M308.726,96.23H177.18c-0.573,0-1.042-0.469-1.042-1.042v-0.846c0-0.573,0.469-1.042,1.042-1.042
				h131.546c0.573,0,1.042,0.469,1.042,1.042v0.846C309.768,95.761,309.299,96.23,308.726,96.23z"/>
			<path style="fill:#FFFFFF;" d="M309.515,108.476H177.969c-0.573,0-1.042-0.469-1.042-1.042v-0.846
				c0-0.573,0.469-1.042,1.042-1.042h131.546c0.573,0,1.042,0.469,1.042,1.042v0.846
				C310.557,108.007,310.088,108.476,309.515,108.476z"/>
			<path style="fill:#FFFFFF;" d="M265.495,122.444H177.18c-0.573,0-1.042-0.469-1.042-1.042v-0.846
				c0-0.573,0.469-1.042,1.042-1.042h88.315c0.573,0,1.042,0.469,1.042,1.042v0.846
				C266.537,121.975,266.068,122.444,265.495,122.444z"/>
		</g>
		<g>
			<g>
				<path style="fill:#19203F;" d="M267.449,411.395H49.472c-0.388,0-0.703-0.314-0.703-0.703v-155.92
					c0-0.388,0.314-0.703,0.703-0.703h217.977c0.389,0,0.703,0.314,0.703,0.703v155.92
					C268.152,411.081,267.837,411.395,267.449,411.395z M50.175,409.99h216.571V255.476H50.175V409.99z"/>
			</g>
			<g>
				<rect x="58.574" y="320.79" style="fill:#FF5F5F;" width="82.85" height="82.85"/>
				<g>
					<polygon style="fill:#FFFFFF;" points="83.564,337.506 83.564,389.264 127.895,361.369 					"/>
				</g>
				<rect x="146.803" y="355.338" style="fill:#2ed573;" width="48.303" height="48.303"/>
				<rect x="59.413" y="266.318" style="fill:#2ed573;" width="48.303" height="48.303"/>
			</g>
		</g>
		<g>
			<g>
				<g>
					<path style="fill:#2ed573;" d="M436.691,123.21c-0.026,5.802-1.009,11.386-2.824,16.575l-48.479-16.021l48.44-17.696
						C435.71,111.424,436.718,117.206,436.691,123.21z"/>
				</g>
			</g>
			<g>
				<g>
					<path style="fill:#FFA233;" d="M433.868,139.784c-6.977,20.164-26.177,34.597-48.704,34.496
						c-28.33-0.126-51.185-23.198-51.058-51.528c0.126-28.318,23.185-51.184,51.515-51.058l-0.232,52.069L433.868,139.784z"/>
				</g>
			</g>
			<g>
				<g>
					<path style="fill:#A4BFEA;" d="M433.829,106.067l-48.44,17.696l0.232-52.069C407.946,71.794,426.866,86.132,433.829,106.067z"
						/>
				</g>
			</g>
		</g>
		<g>
			<g>
				<path style="fill:#2ed573;" d="M122.76,189.417c0,2.743-2.254,4.984-4.997,4.984h-12.712v12.899
					c0,2.743-2.242,4.997-4.997,4.997c-2.743,0-4.984-2.254-4.984-4.997v-12.899H82.359c-2.743,0-4.997-2.242-4.997-4.984
					c0-1.365,0.564-2.617,1.465-3.532c0.914-0.902,2.154-1.465,3.532-1.465h12.712v-12.524c0-2.743,2.242-4.997,4.984-4.997
					c1.378,0,2.63,0.564,3.532,1.465c0.902,0.914,1.465,2.154,1.465,3.532v12.524h12.712
					C120.506,184.42,122.76,186.674,122.76,189.417z"/>
			</g>
			<g>
				<path style="fill:#FF5F5F;" d="M74.61,173.233c0,2.132-1.752,3.874-3.884,3.874h-9.879v10.025c0,2.132-1.742,3.884-3.884,3.884
					c-2.132,0-3.874-1.752-3.874-3.884v-10.025H43.21c-2.132,0-3.884-1.742-3.884-3.874c0-1.061,0.438-2.034,1.139-2.745
					c0.711-0.701,1.674-1.139,2.745-1.139h9.879v-9.733c0-2.132,1.742-3.884,3.874-3.884c1.071,0,2.044,0.438,2.745,1.139
					c0.701,0.711,1.139,1.674,1.139,2.745v9.733h9.879C72.858,169.35,74.61,171.102,74.61,173.233z"/>
			</g>
			<g>
				<path style="fill:#FF5F5F;" d="M74.61,217.508c0,2.132-1.752,3.874-3.884,3.874h-9.879v10.025c0,2.132-1.742,3.884-3.884,3.884
					c-2.132,0-3.874-1.752-3.874-3.884v-10.025H43.21c-2.132,0-3.884-1.742-3.884-3.874c0-1.061,0.438-2.034,1.139-2.745
					c0.711-0.701,1.674-1.139,2.745-1.139h9.879v-9.733c0-2.132,1.742-3.884,3.874-3.884c1.071,0,2.044,0.438,2.745,1.139
					c0.701,0.711,1.139,1.674,1.139,2.745v9.733h9.879C72.858,213.625,74.61,215.377,74.61,217.508z"/>
			</g>
		</g>
	</g>
	<g>
		<defs>
			<rect id="SVGID_1_" width="500" height="500"/>
		</defs>
		<clipPath id="SVGID_00000091012553082544165430000015120448098916805287_">
			<use xlink:href="#SVGID_1_"  style="overflow:visible;"/>
		</clipPath>
		<g style="clip-path:url(#SVGID_00000091012553082544165430000015120448098916805287_);">
			<g>
				<g>
					<g>
						<path style="fill:#A4BFEA;" d="M409.547,552.409c-5.135-0.009-10.27-0.587-15.266-1.715c-0.219-0.05-0.409-0.185-0.529-0.375
							c-0.12-0.189-0.16-0.419-0.11-0.639l2.076-9.157c-5.27-1.267-10.325-3.263-15.048-5.944l-4.751,8.101
							c-0.236,0.403-0.751,0.539-1.156,0.304c-8.721-5.063-16.434-12.281-22.306-20.873c-0.127-0.186-0.175-0.415-0.133-0.636
							c0.042-0.222,0.17-0.417,0.357-0.544l7.775-5.271c-3.699-5.635-6.37-11.798-7.95-18.343l-9.158,2.076
							c-0.216,0.049-0.449,0.01-0.639-0.11c-0.189-0.12-0.324-0.31-0.374-0.53c-1.129-5.004-1.707-10.142-1.715-15.271
							c0.008-5.131,0.586-10.27,1.715-15.275c0.05-0.219,0.184-0.41,0.374-0.53c0.191-0.12,0.421-0.159,0.639-0.11l9.157,2.076
							c1.263-5.25,3.259-10.304,5.944-15.046l-8.1-4.742c-0.403-0.236-0.539-0.753-0.305-1.156
							c5.069-8.733,12.288-16.447,20.873-22.307c0.185-0.127,0.415-0.175,0.635-0.132c0.222,0.042,0.417,0.17,0.543,0.357
							l5.271,7.775c5.647-3.708,11.813-6.38,18.351-7.951l-2.076-9.157c-0.103-0.456,0.183-0.909,0.639-1.013
							c4.984-1.136,10.12-1.716,15.264-1.724c5.145,0.008,10.283,0.588,15.276,1.723c0.456,0.104,0.742,0.558,0.639,1.013
							l-2.076,9.157c5.252,1.263,10.307,3.26,15.047,5.944l4.742-8.1c0.237-0.403,0.754-0.54,1.156-0.305
							c8.723,5.055,16.437,12.269,22.309,20.864c0.127,0.186,0.175,0.415,0.132,0.636c-0.042,0.222-0.17,0.417-0.357,0.543
							l-7.783,5.271c3.705,5.64,6.379,11.806,7.959,18.351l9.158-2.076c0.453-0.103,0.91,0.183,1.013,0.639
							c1.135,4.993,1.715,10.132,1.723,15.273c-0.008,5.145-0.588,10.283-1.723,15.276c-0.103,0.456-0.559,0.741-1.013,0.639
							l-9.157-2.076c-1.266,5.261-3.262,10.313-5.944,15.04l8.101,4.75c0.402,0.236,0.539,0.752,0.304,1.155
							c-5.046,8.707-12.26,16.42-20.864,22.307c-0.186,0.127-0.417,0.174-0.636,0.133c-0.222-0.042-0.417-0.17-0.543-0.357
							l-5.272-7.783c-5.641,3.705-11.807,6.379-18.351,7.959l2.076,9.158c0.05,0.219,0.01,0.449-0.11,0.639
							c-0.12,0.189-0.311,0.324-0.53,0.374C419.813,551.823,414.675,552.4,409.547,552.409z M395.482,549.224
							c4.613,0.981,9.34,1.483,14.065,1.492c4.719-0.008,9.449-0.51,14.069-1.492l-2.073-9.147c-0.05-0.219-0.01-0.449,0.11-0.639
							c0.12-0.19,0.31-0.325,0.529-0.375c6.919-1.565,13.414-4.382,19.305-8.372c0.386-0.261,0.913-0.162,1.176,0.227l5.263,7.77
							c7.85-5.513,14.472-12.59,19.228-20.547l-8.094-4.747c-0.194-0.113-0.334-0.299-0.391-0.517
							c-0.056-0.218-0.025-0.448,0.089-0.642c2.951-5.03,5.093-10.452,6.367-16.115c0.05-0.219,0.184-0.41,0.374-0.53
							c0.191-0.119,0.421-0.158,0.639-0.11l9.148,2.074c0.987-4.61,1.491-9.34,1.499-14.074c-0.007-4.73-0.512-9.46-1.499-14.071
							l-9.148,2.074c-0.219,0.05-0.448,0.01-0.639-0.11c-0.19-0.12-0.325-0.31-0.375-0.529c-1.566-6.921-4.382-13.415-8.372-19.305
							c-0.126-0.186-0.173-0.414-0.131-0.634c0.043-0.221,0.171-0.416,0.357-0.542l7.771-5.263
							c-5.499-7.842-12.576-14.463-20.547-19.227l-4.738,8.094c-0.237,0.404-0.758,0.539-1.159,0.304
							c-5.048-2.954-10.472-5.097-16.124-6.368c-0.219-0.05-0.41-0.184-0.53-0.374c-0.12-0.19-0.16-0.42-0.11-0.639l2.074-9.148
							c-4.611-0.987-9.34-1.492-14.074-1.499c-4.733,0.007-9.459,0.511-14.062,1.499l2.074,9.148c0.05,0.219,0.01,0.449-0.11,0.639
							c-0.12,0.19-0.311,0.324-0.53,0.374c-6.912,1.555-13.408,4.369-19.304,8.362c-0.386,0.261-0.913,0.162-1.176-0.226
							l-5.264-7.764c-7.833,5.49-14.459,12.567-19.235,20.547l8.093,4.738c0.404,0.237,0.539,0.755,0.304,1.159
							c-2.955,5.049-5.097,10.474-6.368,16.123c-0.05,0.219-0.184,0.41-0.374,0.53c-0.19,0.12-0.42,0.16-0.639,0.11l-9.147-2.073
							c-0.983,4.622-1.485,9.352-1.492,14.074c0.007,4.719,0.51,9.449,1.491,14.069l9.147-2.073c0.218-0.049,0.448-0.01,0.639,0.11
							c0.19,0.12,0.325,0.31,0.375,0.529c1.565,6.921,4.379,13.413,8.362,19.297c0.262,0.387,0.161,0.913-0.226,1.176l-7.763,5.263
							c5.501,7.84,12.577,14.465,20.547,19.236l4.747-8.094c0.113-0.194,0.299-0.334,0.517-0.391
							c0.218-0.058,0.448-0.024,0.642,0.089c5.026,2.949,10.45,5.092,16.123,6.367c0.219,0.05,0.41,0.184,0.53,0.374
							c0.12,0.19,0.16,0.42,0.11,0.639L395.482,549.224z M409.46,529.385c-24.54,0-44.505-19.965-44.505-44.506
							c0-24.54,19.965-44.506,44.505-44.506c24.541,0,44.506,19.965,44.506,44.506C453.965,509.42,434,529.385,409.46,529.385z
							 M409.46,442.068c-23.606,0-42.811,19.205-42.811,42.811s19.205,42.811,42.811,42.811c23.607,0,42.811-19.205,42.811-42.811
							S433.066,442.068,409.46,442.068z"/>
					</g>
				</g>
			</g>
			<g>
				<g>
					<g>
						<path style="fill:#A4BFEA;" d="M129.763,437.259c-0.044,2.372-0.384,4.656-1.021,6.787c-0.033,0.132-0.121,0.242-0.242,0.296
							c-0.121,0.066-0.264,0.088-0.384,0.044l-3.921-1.197c-0.692,2.054-1.746,3.964-3.119,5.678l3.108,2.647
							c0.099,0.088,0.165,0.209,0.176,0.351c0.011,0.132-0.033,0.264-0.121,0.362c-3.009,3.525-7.072,6.117-11.443,7.292
							c-0.264,0.077-0.538-0.088-0.615-0.351l-1.087-3.942c-2.592,0.648-5.392,0.714-8.072,0.187l-0.912,3.975
							c-0.033,0.132-0.11,0.253-0.231,0.318c-0.077,0.055-0.176,0.077-0.264,0.077c-0.044,0-0.088-0.011-0.132-0.022l-1.625-0.417
							c-0.45-0.154-0.868-0.308-1.274-0.45l-0.362-0.132c-0.428-0.143-0.846-0.351-1.252-0.538l-0.582-0.286
							c-0.428-0.209-0.879-0.428-1.296-0.692c-1.845-1.032-3.646-2.471-5.337-4.261c-0.088-0.099-0.143-0.231-0.132-0.362
							c0-0.143,0.066-0.264,0.165-0.362l2.976-2.767c-1.45-1.658-2.581-3.514-3.36-5.546l-3.844,1.373
							c-0.264,0.088-0.549-0.044-0.648-0.308l-0.286-0.802c-0.055-0.187-0.099-0.362-0.154-0.538
							c-0.022-0.099-0.044-0.198-0.077-0.308c-0.044-0.198-0.099-0.373-0.143-0.56c-0.099-0.362-0.198-0.736-0.264-1.12l-0.253-1.68
							c-0.066-0.395-0.088-0.791-0.099-1.175c-0.011-0.176-0.022-0.351-0.033-0.538l-0.033-0.857c-0.022-0.209,0-0.428,0.011-0.626
							c0-0.088,0.011-0.165,0.011-0.253c0.022-0.571,0.055-1.131,0.088-1.691l0.088-0.571c0.132-0.934,0.275-1.9,0.549-2.844
							c0.077-0.264,0.351-0.417,0.615-0.351l3.942,1.032c0.758-2.614,2.087-5.041,3.888-7.094l-2.976-2.767
							c-0.099-0.099-0.165-0.22-0.165-0.362c-0.011-0.132,0.044-0.264,0.132-0.362c1.702-1.801,3.503-3.24,5.37-4.272
							c0.384-0.253,0.835-0.472,1.263-0.681l0.582-0.286c0.406-0.187,0.824-0.384,1.274-0.538l0.351-0.132
							c0.406-0.143,0.813-0.296,1.23-0.439l1.658-0.428c0.143-0.033,0.275-0.011,0.395,0.055c0.121,0.077,0.198,0.187,0.231,0.319
							l0.912,3.975c2.13-0.417,4.338-0.472,6.479-0.132l0.736-4.019c0.022-0.132,0.099-0.253,0.209-0.329
							c0.11-0.077,0.253-0.11,0.384-0.077c2.449,0.472,4.634,1.23,6.501,2.229c2.076,1.109,3.942,2.46,5.535,4.019
							c0.088,0.099,0.143,0.231,0.143,0.362c0.011,0.132-0.044,0.264-0.143,0.362l-2.866,2.91c1.889,1.966,3.327,4.338,4.195,6.908
							l3.921-1.208c0.121-0.033,0.264-0.022,0.384,0.044c0.121,0.055,0.209,0.165,0.242,0.297
							C129.379,432.614,129.719,434.898,129.763,437.259z"/>
					</g>
				</g>
			</g>
			<g>
				<g>
					<g>
						<path style="fill:#A4BFEA;" d="M159.665,497.592c-0.071,0-0.141-0.009-0.212-0.026l-2.728-0.703
							c-0.749-0.254-1.429-0.505-2.109-0.754l-0.621-0.227c-0.725-0.239-1.417-0.573-2.087-0.897l-0.984-0.475
							c-0.718-0.347-1.461-0.707-2.162-1.16c-3.081-1.717-6.096-4.122-8.918-7.12c-0.155-0.165-0.237-0.384-0.229-0.609
							s0.104-0.438,0.269-0.592l4.988-4.641c-2.429-2.758-4.317-5.868-5.626-9.263l-6.421,2.286
							c-0.439,0.156-0.925-0.073-1.082-0.514l-0.474-1.329c-0.102-0.318-0.179-0.611-0.255-0.906
							c-0.044-0.168-0.088-0.337-0.135-0.504c-0.082-0.338-0.161-0.642-0.241-0.946c-0.158-0.603-0.321-1.228-0.438-1.868
							l-0.428-2.813c-0.114-0.653-0.14-1.314-0.165-1.953c-0.012-0.303-0.024-0.606-0.046-0.908l-0.069-1.427
							c-0.02-0.366,0.001-0.721,0.021-1.065c0.008-0.136,0.017-0.271,0.021-0.405c0.042-0.954,0.085-1.894,0.154-2.833l0.138-0.956
							c0.227-1.564,0.462-3.182,0.927-4.754c0.129-0.439,0.588-0.698,1.025-0.58l6.595,1.713c1.26-4.36,3.49-8.425,6.497-11.846
							l-4.987-4.64c-0.165-0.154-0.263-0.367-0.27-0.593c-0.007-0.226,0.075-0.445,0.23-0.609c2.839-3.007,5.854-5.412,8.963-7.146
							c0.658-0.428,1.406-0.789,2.128-1.139l0.962-0.463c0.673-0.325,1.368-0.662,2.121-0.911l0.58-0.213
							c0.685-0.252,1.372-0.505,2.063-0.742l2.791-0.722c0.222-0.055,0.457-0.022,0.653,0.097c0.195,0.119,0.334,0.313,0.385,0.535
							l1.517,6.65c3.574-0.709,7.265-0.786,10.84-0.236l1.223-6.715c0.041-0.223,0.169-0.421,0.356-0.548
							c0.187-0.128,0.416-0.176,0.64-0.132c4.092,0.802,7.746,2.056,10.86,3.727c3.489,1.855,6.605,4.121,9.258,6.733
							c0.16,0.158,0.251,0.372,0.253,0.597c0.002,0.225-0.086,0.441-0.243,0.601l-4.793,4.868c3.152,3.282,5.557,7.244,7.009,11.542
							l6.546-2.008c0.215-0.066,0.448-0.044,0.648,0.063c0.199,0.107,0.347,0.289,0.412,0.505c1.063,3.564,1.634,7.374,1.697,11.326
							c-0.063,3.973-0.634,7.781-1.697,11.344c-0.065,0.216-0.213,0.398-0.412,0.505c-0.199,0.107-0.433,0.129-0.648,0.063
							l-6.545-2.008c-1.157,3.448-2.909,6.637-5.218,9.498l5.2,4.431c0.171,0.146,0.277,0.353,0.295,0.578
							c0.017,0.224-0.055,0.446-0.201,0.617c-5.035,5.884-11.828,10.212-19.126,12.185c-0.446,0.124-0.913-0.142-1.037-0.592
							l-1.811-6.579c-4.335,1.077-9.013,1.191-13.504,0.299l-1.517,6.649c-0.05,0.223-0.189,0.416-0.385,0.535
							C159.972,497.55,159.819,497.592,159.665,497.592z M141.668,485.682c2.53,2.586,5.207,4.675,7.965,6.215
							c0.661,0.424,1.326,0.746,2.029,1.087l0.983,0.474c0.649,0.314,1.262,0.61,1.906,0.822l0.649,0.237
							c0.668,0.246,1.337,0.491,2.011,0.722l1.822,0.468l1.509-6.615c0.103-0.455,0.556-0.741,1.013-0.638
							c4.752,1.079,9.763,0.955,14.323-0.32c0.218-0.064,0.45-0.032,0.645,0.079c0.196,0.111,0.34,0.295,0.4,0.512l1.807,6.564
							c6.399-1.901,12.35-5.695,16.911-10.783l-5.183-4.416c-0.357-0.303-0.399-0.837-0.096-1.194
							c2.612-3.067,4.526-6.551,5.688-10.354c0.065-0.215,0.214-0.395,0.413-0.5c0.198-0.108,0.431-0.128,0.645-0.062l6.519,2
							c0.868-3.177,1.336-6.549,1.391-10.038c-0.055-3.469-0.524-6.843-1.391-10.02l-6.519,1.999
							c-0.448,0.138-0.922-0.114-1.058-0.561c-1.415-4.611-3.986-8.845-7.433-12.242c-0.333-0.328-0.337-0.864-0.009-1.197
							l4.777-4.853c-2.401-2.251-5.174-4.22-8.257-5.859c-2.754-1.479-5.961-2.616-9.546-3.386l-1.218,6.686
							c-0.04,0.222-0.166,0.418-0.352,0.545c-0.184,0.127-0.411,0.176-0.634,0.137c-3.878-0.708-7.939-0.625-11.824,0.256
							c-0.457,0.099-0.909-0.183-1.013-0.638l-1.509-6.615l-1.884,0.486c-0.616,0.214-1.291,0.462-1.965,0.71l-0.607,0.223
							c-0.672,0.223-1.288,0.52-1.941,0.836l-0.961,0.463c-0.707,0.342-1.376,0.665-1.994,1.065
							c-2.788,1.558-5.467,3.648-8.012,6.243l4.968,4.623c0.342,0.318,0.362,0.855,0.044,1.197
							c-3.298,3.548-5.681,7.893-6.891,12.563c-0.056,0.218-0.197,0.404-0.39,0.518c-0.194,0.113-0.428,0.145-0.642,0.089
							l-6.591-1.712c-0.299,1.221-0.483,2.491-0.663,3.727l-0.132,0.901c-0.06,0.859-0.102,1.783-0.144,2.715
							c-0.005,0.141-0.014,0.288-0.022,0.435c-0.017,0.293-0.036,0.586-0.021,0.879l0.069,1.412c0.022,0.3,0.035,0.622,0.047,0.944
							c0.024,0.611,0.046,1.188,0.144,1.747l0.426,2.804c0.103,0.553,0.251,1.12,0.407,1.721c0.082,0.314,0.165,0.628,0.241,0.945
							c0.042,0.146,0.089,0.326,0.136,0.507c0.069,0.263,0.136,0.527,0.22,0.788l0.18,0.505l6.412-2.282
							c0.212-0.074,0.444-0.064,0.648,0.033c0.203,0.097,0.359,0.271,0.434,0.482c1.329,3.751,3.392,7.149,6.133,10.1
							c0.318,0.342,0.299,0.879-0.043,1.197L141.668,485.682z M168.102,480.642c-11.504,0-20.864-9.359-20.864-20.863
							c0-11.499,9.36-20.855,20.864-20.855s20.863,9.356,20.863,20.855C188.965,471.283,179.606,480.642,168.102,480.642z
							 M168.102,440.618c-10.57,0-19.17,8.596-19.17,19.161c0,10.57,8.6,19.169,19.17,19.169c10.57,0,19.169-8.599,19.169-19.169
							C187.271,449.213,178.672,440.618,168.102,440.618z"/>
					</g>
				</g>
			</g>
		</g>
		<g style="clip-path:url(#SVGID_00000091012553082544165430000015120448098916805287_);">
			<g>
				<g>
					<g>
						<g>
							<path style="fill:#F79654;" d="M127.147,201.42l2.284,2.795c-2.085-2.565-5.894-2.954-8.448-0.877
								c-1.277,1.038-2.01,2.512-2.176,4.055c-0.163,1.522,0.261,3.116,1.308,4.404l1.845,2.259l-0.045,0.036
								c-2.154-1.998-5.527-2.159-7.874-0.263c-1.277,1.038-2.01,2.512-2.165,4.046c-0.143,1.268,0.131,2.576,0.825,3.719
								l13.588,16.786c2.426,2.977,5.505,5.148,8.863,6.458l16.033,19.693l30.581-24.885l-12.66-10.855
								c0.191-0.388,0.37-0.767,0.532-1.169c0.946-2.302,1.488-4.745,1.62-7.196c0.882-5.939,0.442-11.996-1.297-17.768
								c-0.249-0.832-0.518-1.666-0.831-2.486l-1.633-4.351c-0.076-0.307-0.192-0.62-0.334-0.894
								c-0.212-0.457-0.461-0.868-0.784-1.256c-0.976-1.197-2.4-2.007-4.003-2.18c-0.304-0.037-0.622-0.044-0.942-0.032
								l-10.745,0.521l-4.433-4.833c-2.077-2.554-5.885-2.942-8.439-0.866c-1.277,1.038-2.01,2.512-2.185,4.044
								c-0.112,1.097,0.08,2.23,0.582,3.268c-2.103-2.331-5.728-2.625-8.202-0.611c-1.277,1.038-2.01,2.512-2.174,4.035
								C125.694,198.561,126.109,200.143,127.147,201.42z"/>
						</g>
					</g>
					<g>
						<g>
							<path style="fill:#19203F;" d="M126.87,201.418c-0.243,0.228-0.258,0.606-0.04,0.838l7.259,7.992l3.476,3.823
								c0.154,0.173,0.319,0.337,0.487,0.48c0.63,0.57,1.361,0.987,2.13,1.265c1.909,0.704,4.085,0.483,5.847-0.661
								c0.29-0.191,0.563-0.405,0.829-0.65l0.034-0.027c1.503-1.381,2.21-3.311,2.09-5.217c-0.072-1.448-0.628-2.883-1.681-4.038
								l-1.062-1.167l-1.053-1.155c-0.074-0.071-0.159-0.132-0.258-0.165c-0.041-0.005-0.09-0.021-0.131-0.026
								c-0.162-0.02-0.323,0.033-0.461,0.16c-0.241,0.207-0.267,0.595-0.04,0.838l0.118,0.127l1.996,2.195
								c1.997,2.195,1.833,5.588-0.361,7.585c-2.197,2.017-5.6,1.842-7.596-0.353l-3.44-3.778l-7.306-8.028
								C127.501,201.216,127.102,201.199,126.87,201.418z"/>
						</g>
					</g>
					<g>
						<g>
							<path style="fill:#19203F;" d="M121.598,213.57c-0.243,0.228-0.258,0.606-0.042,0.858l3.348,3.684l4.466,4.899
								c0.018,0.023,0.027,0.034,0.056,0.048c0.654,0.716,1.442,1.254,2.316,1.596c0.685,0.288,1.416,0.449,2.182,0.49
								c1.39,0.065,2.751-0.305,3.89-1.051c0.302-0.2,0.574-0.414,0.849-0.648c2.172-1.979,2.714-5.1,1.519-7.63
								c-0.267-0.598-0.631-1.156-1.096-1.654c-0.216-0.252-0.595-0.267-0.838-0.04c-0.127,0.118-0.208,0.273-0.196,0.429
								c-0.008,0.153,0.047,0.294,0.156,0.41c1.997,2.195,1.831,5.608-0.364,7.605c-1.051,0.952-2.426,1.444-3.868,1.383
								c-1.338-0.069-2.598-0.622-3.533-1.558c-0.065-0.059-0.13-0.118-0.183-0.187l-4.457-4.887l-3.357-3.696
								C122.217,213.377,121.85,213.353,121.598,213.57z"/>
						</g>
					</g>
					<g>
						<g>
							<path style="fill:#19203F;" d="M116.107,225.14c-0.232,0.219-0.258,0.606-0.04,0.838l0.207,0.241l4.406,5.056
								c2.206,2.415,5.798,2.808,8.455,1.073c0.29-0.191,0.563-0.405,0.838-0.639c2.01-1.834,2.617-4.639,1.768-7.055
								c-0.283-0.805-0.727-1.558-1.333-2.238c-0.228-0.243-0.606-0.258-0.85-0.031c-0.198,0.192-0.25,0.453-0.133,0.673
								c0.013,0.063,0.057,0.12,0.093,0.165c1.997,2.195,1.831,5.608-0.353,7.596c-2.206,2.005-5.599,1.842-7.596-0.353l-4.433-5.09
								l-0.181-0.207C116.738,224.939,116.351,224.913,116.107,225.14z"/>
						</g>
					</g>
				</g>
				<g>
					
						<rect x="192.331" y="188.511" transform="matrix(-0.7514 -0.6598 0.6598 -0.7514 215.2049 477.0546)" style="fill:#FFFFFF;" width="10.268" height="18.956"/>
					<path style="fill:#FF5F5F;" d="M168.328,201.629l-37.622,44.187c-1.556,1.772-4.253,1.947-6.025,0.391l-5.155-4.527
						c-1.407-1.235-1.845-3.242-1.08-4.951l27.402-54.841L168.328,201.629z"/>
					<polygon style="fill:#19203F;" points="134.726,204.145 129.971,199.969 135.876,173.133 145.847,181.889 					"/>
					<path style="fill:#FF5F5F;" d="M127.66,165.918l44.543,39.114c4.959,4.355,12.58,3.86,16.935-1.099l13.419-15.281
						c4.355-4.959,3.86-12.58-1.099-16.935l-44.543-39.114L127.66,165.918z"/>
					<path style="fill:#FFFFFF;" d="M127.464,166.46c0,0-55.436-26.766-92.419-29.179c0,0-5.903-15.303,29.477-55.594l0.196-0.542
						c35.38-40.291,51.318-36.415,51.318-36.415c7.173,36.361,40.879,87.873,40.879,87.873L127.464,166.46z"/>
					<g>
						<path style="fill:#FF5F5F;" d="M42.891,60.803c-24.589,28.002-30.447,61.698-13.342,76.718
							c17.097,15.013,49.753,4.848,74.342-23.154c24.582-27.993,30.447-61.698,13.351-76.711
							C100.136,22.637,67.473,32.81,42.891,60.803z M51.431,68.302c19.7-22.434,46.399-32.566,58.312-22.105
							c11.904,10.454,5.308,38.238-14.391,60.672c-19.707,22.443-46.399,32.566-58.303,22.113
							C25.135,118.521,31.724,90.745,51.431,68.302z"/>
						<path style="fill:#FFFFFF;" d="M51.431,68.302c-19.707,22.443-26.296,50.219-14.383,60.68
							c11.904,10.454,38.596,0.33,58.303-22.113c19.7-22.434,26.296-50.219,14.391-60.672C97.83,35.736,71.131,45.868,51.431,68.302
							z"/>
					</g>
					<g>
						<path style="fill:#19203F;" d="M75.607,123.585c-0.233,0-0.464-0.117-0.597-0.332L58.462,96.68
							c-0.163-0.263-0.136-0.602,0.069-0.835l22.41-25.52c0.217-0.246,0.575-0.31,0.862-0.154l27.932,15.066
							c0.342,0.184,0.469,0.61,0.286,0.952c-0.185,0.343-0.614,0.469-0.953,0.285l-27.439-14.8L59.933,96.38l16.271,26.131
							c0.205,0.329,0.104,0.763-0.225,0.968C75.862,123.551,75.735,123.585,75.607,123.585z"/>
					</g>
					<g>
						<path style="fill:#19203F;" d="M59.058,97.012c-0.334,0-0.63-0.239-0.69-0.58c-0.069-0.382,0.187-0.747,0.568-0.815
							c25.091-4.466,21.986-23.882,21.842-24.706c-0.067-0.382,0.188-0.747,0.57-0.814c0.372-0.072,0.745,0.186,0.814,0.569
							c0.038,0.216,3.521,21.618-22.979,26.335C59.141,97.008,59.099,97.012,59.058,97.012z"/>
					</g>
					<g>
						<path style="fill:#19203F;" d="M42.304,123.69c-0.195,0-0.39-0.081-0.53-0.24c-15.358-17.574,13.802-53.074,15.05-54.577
							c0.25-0.298,0.695-0.337,0.99-0.091c0.299,0.248,0.339,0.691,0.092,0.99c-0.298,0.359-29.646,36.078-15.072,52.753
							c0.255,0.292,0.225,0.736-0.067,0.992C42.633,123.634,42.468,123.69,42.304,123.69z"/>
					</g>
					<g>
						<path style="fill:#19203F;" d="M168.327,202.332c-0.165,0-0.331-0.058-0.464-0.175l-40.509-35.572
							c-0.291-0.256-0.32-0.7-0.065-0.992c0.255-0.291,0.701-0.319,0.993-0.064l40.509,35.572c0.291,0.256,0.32,0.7,0.065,0.992
							C168.717,202.251,168.522,202.332,168.327,202.332z"/>
					</g>
					<g>
						<path style="fill:#19203F;" d="M200.365,187.608c-0.165,0-0.331-0.058-0.464-0.175l-51.299-45.046
							c-0.291-0.256-0.32-0.7-0.065-0.992c0.255-0.291,0.701-0.32,0.993-0.064l51.299,45.046c0.291,0.256,0.32,0.7,0.065,0.992
							C200.755,187.527,200.56,187.608,200.365,187.608z"/>
					</g>
					<g>
						<path style="fill:#19203F;" d="M193.744,195.149c-0.165,0-0.331-0.058-0.464-0.175l-51.299-45.046
							c-0.291-0.256-0.32-0.7-0.065-0.992c0.255-0.29,0.701-0.32,0.993-0.064l51.299,45.046c0.291,0.256,0.32,0.7,0.065,0.992
							C194.134,195.068,193.939,195.149,193.744,195.149z"/>
					</g>
				</g>
				<g>
					<g>
						<g>
							<path style="fill:#F79654;" d="M181.767,239.644l-30.588,24.881l-16.025-19.694l12.314-20.102
								c-0.604-2.193-0.886-4.175-0.942-5.974v-0.014c-0.042-1.56,0.084-2.98,0.365-4.259c0.422-2.066,1.181-3.781,2.095-5.215
								c1.701-2.671,3.95-4.386,5.651-5.398l-8.392,0.183c-0.633,0.028-1.237-0.056-1.827-0.211
								c-0.478-0.127-0.956-0.309-1.378-0.534c-2.052-1.082-3.458-3.205-3.514-5.665c-0.098-3.613,2.783-6.649,6.41-6.719
								l3.711-0.084l1.04,1.139l10.754-0.52c0.309-0.014,0.633,0,0.942,0.028c1.603,0.183,3.022,0.984,3.992,2.179
								c0.323,0.394,0.576,0.801,0.787,1.265c0.141,0.267,0.267,0.59,0.337,0.886l1.631,4.358c0.309,0.815,0.576,1.659,0.829,2.488
								c1.743,5.763,2.179,11.822,1.293,17.768c-0.126,2.446-0.675,4.892-1.617,7.197c-0.155,0.394-0.337,0.773-0.534,1.167
								L181.767,239.644z"/>
						</g>
					</g>
					<path style="fill:#19203F;" d="M162.509,191.133c0,0.127-0.042,0.253-0.127,0.351c-0.084,0.155-0.267,0.253-0.464,0.253
						l-1.982,0.056l-13.973,0.309c-2.966,0.084-5.328,2.544-5.243,5.524c0.042,2.207,1.448,4.091,3.402,4.864
						c0.225,0.098,0.45,0.155,0.675,0.225c0.042,0,0.084,0.014,0.127,0.014c0.422,0.098,0.857,0.155,1.293,0.127l11.119-0.253
						c0.281-0.014,0.562,0.197,0.604,0.492c0.042,0.295-0.127,0.576-0.408,0.675c-0.45,0.141-9.685,3.332-9.84,14.085
						c-0.028,1.912,0.253,4.105,0.914,6.551c0.07,0.267-0.028,0.52-0.253,0.661c-0.042,0.042-0.098,0.056-0.155,0.07
						c-0.323,0.084-0.647-0.098-0.731-0.408c-0.604-2.193-0.886-4.175-0.942-5.974v-0.014c-0.042-1.56,0.084-2.98,0.365-4.259
						c0.422-2.066,1.181-3.781,2.095-5.215c1.701-2.671,3.95-4.386,5.651-5.398l-8.392,0.183c-0.633,0.028-1.237-0.056-1.827-0.211
						c-0.478-0.127-0.956-0.309-1.378-0.534c-2.052-1.082-3.458-3.205-3.514-5.665c-0.098-3.613,2.783-6.649,6.41-6.719l3.711-0.084
						l12.244-0.295c0.014,0,0.028-0.014,0.042,0C162.228,190.557,162.495,190.81,162.509,191.133z"/>
				</g>
			</g>
			<g>
				<path style="fill:#19203F;" d="M432.903,219.729c0.211,6.227-3.753,11.864-9.053,14.83c-6.241,3.5-13.917,3.135-20.369,0.422
					c-3.332-1.406-6.298-3.5-9.517-5.117c-3.514-1.757-7.071-2.502-10.993-1.884c-7.408,1.181-14.507,5.932-22.252,4.231
					c-6.115-1.335-9.095-6.79-12.454-11.499c-1.659-2.319-3.542-4.583-6.129-5.876c-2.544-1.279-5.398-1.518-8.195-1.265
					c-5.862,0.506-11.443,2.797-17.332,2.994c-2.783,0.084-5.609-0.337-8.069-1.673c-2.868-1.56-4.976-4.091-6.776-6.761
					c-0.872-1.293-1.729-2.727-2.643-4.175c-4.315-0.801-8.518-2.207-11.681-5.004c-0.099-0.028-0.197-0.07-0.295-0.155
					c-2.362-2.024-4.259-4.526-5.623-7.338c-2.882-5.904-3.247-12.764-1.307-19.005c1.982-6.368,6.199-11.963,11.513-15.955
					c11.175-8.42,26.736-9.587,39.022-2.868c5.848,3.191,10.585,7.858,14.043,13.537c3.163,5.201,5.834,11.583,11.358,14.76
					c6.593,3.767,14.479,1.504,21.507,0.703c6.199-0.703,13.27-0.436,17.824,4.442c3.936,4.217,4.92,10.276,8.631,14.647
					c4.793,5.609,12.483,3.177,18.78,4.864C428.784,208.146,432.706,213.727,432.903,219.729z"/>
				<g>
					<g>
						<path style="fill:#F79654;" d="M329.941,185.51l-1.735,14.984c-0.041,0.357-0.093,0.713-0.144,1.069
							c-0.06,0.345-0.12,0.69-0.191,1.044c-0.156,0.736-0.341,1.469-0.564,2.177c-0.29,0.942-0.638,1.867-1.044,2.765
							c-0.097,0.23-0.203,0.449-0.309,0.668c-0.065,0.123-0.119,0.248-0.185,0.381l-0.001,0.01c-0.064,0.123-0.129,0.247-0.194,0.37
							c-4.132,7.808-12.386,12.997-21.658,12.567c-5.411-0.254-10.27-2.325-14.058-5.57c-5.699-4.894-8.969-12.432-8.045-20.411
							l3.085-21.131c25.433,3.81,34.381-4.982,34.381-4.982c-0.371,6.936,2.621,13.759,7.964,18.249
							C327.91,186.723,328.861,185.979,329.941,185.51z"/>
					</g>
				</g>
				<g>
					<g>
						<path style="fill:#F79654;" d="M289.858,215.971l-1.698,14.36l36.031,5.78l3.064-27.243l-1.492-0.267
							c-0.065,0.123-0.131,0.253-0.196,0.376c-4.132,7.806-12.386,12.994-21.65,12.567
							C298.498,221.287,293.638,219.216,289.858,215.971z"/>
					</g>
				</g>
				<g>
					<g>
						<path style="fill:#F79654;" d="M339.867,199.833c-2.24,4.93-7.23,8.505-12.611,9.039l-1.487-0.273l-0.01-0.001
							c0.064-0.123,0.13-0.256,0.195-0.38c0.106-0.219,0.212-0.438,0.309-0.668c0.406-0.898,0.754-1.823,1.044-2.765
							c0.214-0.719,0.398-1.442,0.554-2.178c0.07-0.344,0.14-0.688,0.201-1.043c0.051-0.356,0.103-0.712,0.144-1.069l1.735-14.984
							c1.569-0.693,3.404-0.823,5.054-0.31c0.64,0.205,1.241,0.486,1.804,0.832c0.469,0.296,0.903,0.627,1.301,1.005l0.028,0.023
							c1.214,1.156,2.117,2.649,2.574,4.26C341.504,194.12,341.069,197.187,339.867,199.833z"/>
					</g>
				</g>
				<g>
					<g>
						<g>
							<circle style="fill:#19203F;" cx="290.398" cy="185.785" r="3.405"/>
						</g>
					</g>
					<g>
						<g>
							<path style="fill:#19203F;" d="M293.249,180.821l-4.493-0.52c-0.584-0.068-1.006-0.601-0.939-1.185l0.1-0.861
								c0.068-0.584,0.601-1.006,1.185-0.939l4.493,0.52c0.584,0.068,1.006,0.601,0.939,1.185l-0.1,0.861
								C294.366,180.466,293.833,180.889,293.249,180.821z"/>
						</g>
					</g>
				</g>
				<g>
					<g>
						<g>
							<circle style="fill:#19203F;" cx="308.991" cy="187.937" r="3.405"/>
						</g>
					</g>
					<g>
						<g>
							<path style="fill:#19203F;" d="M311.842,182.974l-4.493-0.52c-0.584-0.068-1.006-0.601-0.939-1.185l0.1-0.861
								c0.068-0.584,0.601-1.006,1.185-0.939l4.493,0.52c0.584,0.068,1.006,0.601,0.939,1.185l-0.1,0.861
								C312.959,182.619,312.426,183.042,311.842,182.974z"/>
						</g>
					</g>
				</g>
				<g>
					<g>
						<g>
							<circle style="fill:#19203F;" cx="318.236" cy="199.091" r="5.909"/>
						</g>
					</g>
				</g>
				<g>
					<g>
						<path style="fill:#19203F;" d="M319.354,216.493c0,0-6.968,6.121-15.969,5.022s-13.524-5.542-13.524-5.542l-1.117,9.644
							C288.744,225.618,304.938,232.784,319.354,216.493z"/>
					</g>
				</g>
				<g>
					<g>
						<g>
							<polygon style="fill:#19203F;" points="297.419,185.085 298.104,199.674 291.615,198.923 							"/>
						</g>
					</g>
				</g>
				<g>
					<g>
						<path style="fill:#19203F;" d="M333.808,189.283c-2.728,0.945-3.173,4-3.352,6.495c-0.015,0.21,0.164,0.435,0.365,0.483
							c1.7,0.406,3.005,2.044,2.878,3.819c-0.126,1.771-1.725,3.236-3.469,3.335c-0.638,0.036-0.648,1.036-0.003,0.999
							c2.243-0.127,4.214-1.895,4.456-4.156c0.227-2.116-1.228-4.149-3.201-4.825c0.141-1.856,0.415-4.032,2.204-5.008
							c1.861-1.015,3.44,0.635,3.501,2.48c0.021,0.64,1.021,0.648,0.999,0.003C338.111,190.637,336.233,188.443,333.808,189.283z"/>
					</g>
				</g>
				<g>
					<g>
						<path style="fill:#19203F;" d="M299.156,199.572c-2.409-0.334-4.817-0.668-7.226-1.002c1.984-4.636,3.969-9.271,5.953-13.907
							c0.252-0.589-0.712-0.852-0.962-0.269c-2.061,4.814-4.122,9.628-6.182,14.442c-0.143,0.335,0.203,0.596,0.479,0.634
							l7.935,1.101C299.787,200.66,299.786,199.66,299.156,199.572z"/>
					</g>
				</g>
				<g>
					<path style="fill:#19203F;" d="M294.564,204.574l13.984-2.959c0,0,2.094,7.668-4.854,9.38
						C296.745,212.707,294.564,204.574,294.564,204.574z"/>
				</g>
			</g>
			<g>
				<g>
					<path style="fill:#F79654;" d="M461.216,164.553c1.435,0.87,2.386,2.255,2.767,3.781c0.369,1.529,0.168,3.197-0.702,4.632
						l-14.829,24.475c0.075,0.017,0.151,0.034,0.222,0.058l3.871-6.389c1.743-2.877,5.529-3.812,8.413-2.065
						c1.442,0.874,2.386,2.255,2.76,3.777c0.376,1.533,0.168,3.197-0.702,4.632l-1.904,3.142c1.743-2.877,5.536-3.808,8.413-2.065
						c1.435,0.87,2.386,2.255,2.767,3.781c0.373,1.521,0.172,3.19-0.702,4.632l-1.545,2.55l0.056,0.034
						c1.885-2.325,5.278-2.974,7.912-1.378c1.442,0.874,2.393,2.26,2.767,3.781c0.31,1.264,0.229,2.625-0.319,3.874l0.056,0.034
						l-11.423,18.852c-2.03,3.351-4.839,5.974-8.047,7.763l-13.432,22.168l-34.402-20.845l11.259-12.751
						c-0.249-0.36-0.482-0.73-0.699-1.109c-1.284-2.188-2.179-4.578-2.655-7.047c-1.983-6.725-2.231-13.876-0.702-20.77l1.03-4.624
						c0.045-0.325,0.115-0.645,0.212-0.948c0.146-0.492,0.355-0.947,0.616-1.379c0.975-1.609,2.68-2.757,4.694-2.937l10.921-0.984
						l14.914-24.614C454.546,163.741,458.339,162.81,461.216,164.553z"/>
				</g>
				<g>
					<path style="fill:#19203F;" d="M445.88,213.992c-0.321-0.151-0.633-0.329-0.934-0.535c-3.052-2.087-3.839-6.27-1.75-9.323
						l1.807-2.642c0.19-0.278,0.565-0.353,0.849-0.16c0.278,0.19,0.349,0.57,0.158,0.849l-1.807,2.642
						c-1.707,2.498-1.064,5.919,1.432,7.625c2.503,1.715,5.918,1.065,7.626-1.431l9.192-13.445c0.189-0.279,0.578-0.35,0.848-0.16
						c0.279,0.191,0.35,0.571,0.16,0.849l-9.192,13.445C452.387,214.459,448.804,215.368,445.88,213.992z"/>
				</g>
				<g>
					<path style="fill:#19203F;" d="M455.43,221.871c-0.323-0.152-0.635-0.33-0.935-0.536c-3.052-2.087-3.837-6.27-1.75-9.323
						c0.189-0.279,0.577-0.352,0.848-0.16c0.279,0.191,0.35,0.571,0.16,0.849c-1.707,2.497-1.064,5.918,1.433,7.626
						c1.205,0.824,2.662,1.128,4.108,0.856c1.445-0.271,2.694-1.084,3.518-2.287l6.685-9.775c0.19-0.278,0.565-0.354,0.849-0.16
						c0.278,0.19,0.349,0.57,0.158,0.849l-6.685,9.775c-1.006,1.474-2.534,2.468-4.3,2.8
						C458.112,222.648,456.694,222.466,455.43,221.871z"/>
				</g>
				<g>
					<path style="fill:#19203F;" d="M465.372,228.998c-0.321-0.151-0.633-0.329-0.934-0.535c-3.052-2.087-3.839-6.27-1.75-9.323
						c0.189-0.279,0.576-0.352,0.848-0.16c0.279,0.191,0.35,0.571,0.16,0.849c-1.707,2.498-1.064,5.919,1.432,7.625
						c2.502,1.714,5.918,1.065,7.626-1.431l2.785-4.074c0.191-0.279,0.574-0.348,0.848-0.16c0.279,0.191,0.35,0.571,0.16,0.849
						l-2.785,4.074C471.88,229.465,468.296,230.374,465.372,228.998z"/>
				</g>
				<g>
					<path style="fill:#19203F;" d="M444.913,224.347c-0.234-0.11-0.381-0.361-0.345-0.631
						c2.178-16.837-11.349-19.503-11.929-19.608c-0.294-0.053-0.511-0.319-0.501-0.621c0.009-0.303,0.24-0.552,0.54-0.587
						l11.277-1.303c3.006-0.348,5.168-3.075,4.82-6.08c-0.347-3.006-3.079-5.166-6.08-4.82l-16.179,1.87
						c-0.332,0.039-0.637-0.199-0.677-0.536c-0.039-0.335,0.202-0.638,0.536-0.677l16.179-1.87c3.675-0.425,7.009,2.221,7.434,5.893
						c0.424,3.674-2.219,7.009-5.893,7.435l-8.516,0.984c4.278,1.796,11.9,6.922,10.198,20.077
						c-0.043,0.335-0.349,0.571-0.684,0.528C445.03,224.392,444.969,224.373,444.913,224.347z"/>
				</g>
			</g>
			<g>
				<path style="fill:#FFA233;" d="M358.296,266.929l-27.116,62.624c0,0,7.858,8.8,15.392,24.164l2.179,4.695
					c-0.351,0.38-0.703,0.759-1.082,1.125c-14.872,15.322-35.353,21.957-55.61,24.122c-7.534,0.815-15.041,0.998-22.21,0.787
					c-28.002-0.801-50.943-7.703-50.943-7.703c1.082-7.015,2.362-13.678,3.753-19.947c7.647-34.327,18.598-56.509,18.598-56.509
					c-1.293-3.219-2.952-9.517-2.98-20.608c0.014-0.97,0.07-1.968,0.211-3.008c2.53-18.766,26.905-50.409,26.905-50.409v-0.014
					c0.97,0.042,1.94,0.112,2.924,0.239l73.898,9.98c1.532,0.843,2.938,1.898,4.161,3.135c0.759,0.787,1.532,1.546,2.418,2.305
					c0,0.014,0.014,0.028,0.028,0.042c2.418,2.08,4.47,4.569,6.03,7.338c1.49,2.572,2.558,5.426,3.149,8.42
					C358.591,260.674,358.717,263.78,358.296,266.929z"/>
				<g>
					<path style="fill:#FFA233;" d="M279.108,230.487c-11.635-7.74-21.2-4.698-35.081,7.05l-38.092,34.936l-27.542-47.735
						c-12.649,11.756-25.953,22.784-39.132,33.941l42.315,74.816c4.245,7.78,12.25,12.773,21.104,13.162
						c2.548,0.112,5.058-0.162,7.458-0.784c5.947-1.542,11.222-5.222,14.718-10.478l61.304-69.825
						C293.9,253.934,290.742,238.228,279.108,230.487z"/>
				</g>
				<g>
					<path style="fill:#FFA233;" d="M417.416,228.63l-28.573,47.144l-36.57-33.901c-10.248-9.498-26.26-8.894-35.758,1.355
						c-9.501,10.248-8.894,26.258,1.354,35.758l59.327,54.996c4.71,4.365,10.865,6.746,17.201,6.746
						c1.167,0,2.341-0.081,3.512-0.245c7.531-1.054,14.187-5.44,18.129-11.942l42.196-69.619L417.416,228.63z"/>
				</g>
				<g>
					<path style="fill:#19203F;" d="M224.115,351.266c-0.047,0-0.092-0.004-0.139-0.014c-0.38-0.076-0.627-0.445-0.552-0.826
						c4.753-23.891,15.217-46.317,16.956-49.943c-1.647-1.412-7.107-6.865-8.474-18.079c-1.579-12.951,16.936-37.267,17.725-38.296
						c0.239-0.308,0.678-0.364,0.986-0.13c0.308,0.237,0.365,0.677,0.129,0.986c-0.189,0.248-18.954,24.887-17.445,37.27
						c1.505,12.324,8.301,17.435,8.37,17.485c0.276,0.202,0.367,0.573,0.216,0.879c-0.119,0.24-11.954,24.319-17.084,50.102
						C224.737,351.035,224.443,351.266,224.115,351.266z"/>
				</g>
				<g>
					<path style="fill:#19203F;" d="M350.679,310.103c-0.172,0-0.343-0.062-0.479-0.189l-26.533-24.722
						c-0.284-0.264-0.299-0.709-0.036-0.993c0.266-0.284,0.71-0.299,0.994-0.035l26.533,24.722c0.284,0.264,0.299,0.709,0.036,0.993
						C351.056,310.028,350.868,310.103,350.679,310.103z"/>
				</g>
				<g>
					<path style="fill:#19203F;" d="M379.016,293.037c-0.13,0-0.261-0.036-0.378-0.11c-0.327-0.209-0.424-0.643-0.216-0.971
						l9.118-14.329c0.21-0.328,0.648-0.421,0.971-0.216c0.327,0.209,0.424,0.643,0.216,0.971l-9.118,14.329
						C379.475,292.922,379.248,293.037,379.016,293.037z"/>
				</g>
				<g>
					<path style="fill:#19203F;" d="M218.905,292.776c-0.242,0-0.476-0.125-0.607-0.349l-10.79-18.497
						c-0.196-0.336-0.082-0.766,0.253-0.962c0.334-0.194,0.765-0.082,0.961,0.253l10.79,18.497c0.196,0.336,0.082,0.766-0.253,0.962
						C219.148,292.745,219.026,292.776,218.905,292.776z"/>
				</g>
				<g>
					<path style="fill:#F98D16;" d="M154.42,262.112c-0.23-2.06-1.981-3.101-3.886-3.101c-1.9,0-3.294,2.151-3.101,3.886
						c0.23,2.06,1.981,3.101,3.886,3.101C153.219,265.998,154.613,263.847,154.42,262.112z"/>
					<path style="fill:#F98D16;" d="M169.269,251.952c-0.23-2.06-1.981-3.101-3.886-3.101c-1.899,0-3.294,2.151-3.101,3.886
						c0.23,2.06,1.981,3.101,3.886,3.101C168.068,255.838,169.463,253.687,169.269,251.952z"/>
					<path style="fill:#F98D16;" d="M183.538,240.815c-0.23-2.06-1.981-3.101-3.886-3.101c-1.9,0-3.294,2.151-3.101,3.886
						c0.23,2.06,1.981,3.101,3.886,3.101C182.337,244.701,183.732,242.55,183.538,240.815z"/>
					<path style="fill:#F98D16;" d="M185.297,258.204c-0.23-2.06-1.981-3.101-3.886-3.101c-1.9,0-3.294,2.151-3.101,3.886
						c0.23,2.06,1.981,3.101,3.886,3.101C184.096,262.09,185.491,259.939,185.297,258.204z"/>
					<path style="fill:#F98D16;" d="M167.712,269.537c-0.23-2.06-1.981-3.101-3.886-3.101c-1.9,0-3.294,2.151-3.101,3.886
						c0.23,2.06,1.981,3.101,3.886,3.101C166.511,273.423,167.906,271.272,167.712,269.537z"/>
					<path style="fill:#F98D16;" d="M167.712,286.731c-0.23-2.06-1.981-3.101-3.886-3.101c-1.9,0-3.294,2.151-3.101,3.886
						c0.23,2.06,1.981,3.101,3.886,3.101C166.511,290.617,167.906,288.466,167.712,286.731z"/>
					<path style="fill:#F98D16;" d="M182.561,276.962c-0.23-2.06-1.981-3.101-3.886-3.101c-1.899,0-3.294,2.151-3.101,3.886
						c0.23,2.06,1.981,3.101,3.886,3.101C181.36,280.848,182.755,278.697,182.561,276.962z"/>
					<path style="fill:#F98D16;" d="M199.951,270.319c-0.23-2.06-1.981-3.101-3.886-3.101c-1.899,0-3.294,2.151-3.101,3.886
						c0.23,2.06,1.981,3.101,3.886,3.101C198.75,274.204,200.145,272.053,199.951,270.319z"/>
					<path style="fill:#F98D16;" d="M197.601,285.317c-0.23-2.06-1.981-3.101-3.886-3.101c-1.9,0-3.294,2.151-3.101,3.886
						c0.23,2.06,1.981,3.101,3.886,3.101C196.399,289.202,197.794,287.052,197.601,285.317z"/>
					<path style="fill:#F98D16;" d="M183.148,296.891c-0.23-2.06-1.981-3.101-3.886-3.101c-1.899,0-3.294,2.151-3.101,3.886
						c0.23,2.06,1.981,3.101,3.886,3.101C181.947,300.777,183.341,298.626,183.148,296.891z"/>
					<path style="fill:#F98D16;" d="M180.608,312.132c-0.23-2.06-1.981-3.101-3.886-3.101c-1.899,0-3.294,2.151-3.101,3.886
						c0.23,2.06,1.981,3.101,3.886,3.101C179.407,316.017,180.801,313.867,180.608,312.132z"/>
					<path style="fill:#F98D16;" d="M198.779,304.511c-0.23-2.06-1.981-3.101-3.886-3.101c-1.899,0-3.294,2.151-3.101,3.886
						c0.23,2.06,1.981,3.101,3.886,3.101C197.578,308.397,198.972,306.246,198.779,304.511z"/>
					<path style="fill:#F98D16;" d="M194.089,327.763c-0.23-2.06-1.981-3.101-3.886-3.101c-1.9,0-3.294,2.151-3.101,3.886
						c0.23,2.06,1.981,3.101,3.886,3.101C192.888,331.648,194.283,329.498,194.089,327.763z"/>
					<path style="fill:#F98D16;" d="M212.456,339.877c-0.23-2.06-1.981-3.101-3.886-3.101c-1.899,0-3.294,2.151-3.101,3.886
						c0.23,2.06,1.981,3.101,3.886,3.101C211.255,343.762,212.649,341.612,212.456,339.877z"/>
					<path style="fill:#F98D16;" d="M207.962,320.776c-0.23-2.06-1.981-3.101-3.886-3.101c-1.9,0-3.294,2.151-3.101,3.886
						c0.23,2.06,1.981,3.101,3.886,3.101C206.761,324.662,208.156,322.511,207.962,320.776z"/>
					<path style="fill:#F98D16;" d="M216.168,303.73c-0.23-2.06-1.981-3.101-3.886-3.101c-1.899,0-3.294,2.151-3.101,3.886
						c0.23,2.06,1.981,3.101,3.886,3.101C214.967,307.616,216.362,305.465,216.168,303.73z"/>
					<path style="fill:#F98D16;" d="M212.26,290.639c-0.23-2.06-1.981-3.101-3.886-3.101c-1.9,0-3.294,2.151-3.101,3.886
						c0.23,2.06,1.981,3.101,3.886,3.101C211.059,294.525,212.454,292.374,212.26,290.639z"/>
					<path style="fill:#F98D16;" d="M232.946,309.761c-0.23-2.06-1.981-3.101-3.886-3.101c-1.9,0-3.294,2.151-3.101,3.886
						c0.23,2.06,1.981,3.101,3.886,3.101C231.745,313.647,233.139,311.496,232.946,309.761z"/>
					<path style="fill:#F98D16;" d="M224.57,327.372c-0.23-2.06-1.981-3.101-3.886-3.101c-1.9,0-3.294,2.151-3.101,3.886
						c0.23,2.06,1.981,3.101,3.886,3.101C223.369,331.258,224.764,329.107,224.57,327.372z"/>
					<path style="fill:#F98D16;" d="M231.219,288.81c-0.23-2.06-1.981-3.101-3.886-3.101c-1.899,0-3.294,2.151-3.1,3.886
						c0.23,2.06,1.981,3.101,3.886,3.101C230.018,292.696,231.413,290.545,231.219,288.81z"/>
					<path style="fill:#F98D16;" d="M222.811,273.249c-0.23-2.06-1.981-3.101-3.886-3.101c-1.9,0-3.294,2.151-3.101,3.886
						c0.23,2.06,1.981,3.101,3.886,3.101C221.61,277.135,223.005,274.984,222.811,273.249z"/>
					<path style="fill:#F98D16;" d="M234.73,262.308c-0.23-2.06-1.981-3.1-3.886-3.1c-1.9,0-3.294,2.151-3.101,3.886
						c0.23,2.06,1.981,3.101,3.886,3.101C233.529,266.193,234.924,264.043,234.73,262.308z"/>
					<path style="fill:#F98D16;" d="M333.596,275.008c-0.23-2.06-1.981-3.101-3.886-3.101c-1.899,0-3.294,2.151-3.1,3.886
						c0.23,2.06,1.981,3.101,3.886,3.101C332.395,278.894,333.79,276.743,333.596,275.008z"/>
					<path style="fill:#F98D16;" d="M350.009,248.044c-0.23-2.06-1.981-3.101-3.886-3.101c-1.9,0-3.294,2.151-3.101,3.886
						c0.23,2.06,1.981,3.101,3.886,3.101C348.808,251.93,350.203,249.779,350.009,248.044z"/>
					<path style="fill:#F98D16;" d="M341.412,262.503c-0.23-2.06-1.981-3.101-3.886-3.101c-1.9,0-3.294,2.151-3.101,3.886
						c0.23,2.06,1.981,3.101,3.886,3.101C340.211,266.389,341.605,264.238,341.412,262.503z"/>
					<path style="fill:#F98D16;" d="M360.755,264.066c-0.23-2.06-1.981-3.101-3.886-3.101c-1.9,0-3.294,2.151-3.101,3.886
						c0.23,2.06,1.981,3.101,3.886,3.101C359.554,267.952,360.949,265.801,360.755,264.066z"/>
					<path style="fill:#F98D16;" d="M351.377,279.111c-0.23-2.06-1.981-3.101-3.886-3.101c-1.9,0-3.294,2.151-3.1,3.886
						c0.23,2.06,1.981,3.101,3.886,3.101C350.176,282.997,351.57,280.846,351.377,279.111z"/>
					<path style="fill:#F98D16;" d="M351.572,296.5c-0.23-2.06-1.981-3.101-3.886-3.101c-1.9,0-3.294,2.151-3.101,3.886
						c0.23,2.06,1.981,3.101,3.886,3.101C350.371,300.386,351.766,298.236,351.572,296.5z"/>
					<path style="fill:#F98D16;" d="M365.64,279.697c-0.23-2.06-1.981-3.101-3.886-3.101c-1.9,0-3.294,2.151-3.101,3.886
						c0.23,2.06,1.981,3.101,3.886,3.101C364.439,283.583,365.834,281.432,365.64,279.697z"/>
					<path style="fill:#F98D16;" d="M381.271,270.319c-0.23-2.06-1.981-3.101-3.886-3.101c-1.899,0-3.294,2.151-3.1,3.886
						c0.23,2.06,1.981,3.101,3.886,3.101C380.07,274.204,381.465,272.053,381.271,270.319z"/>
					<path style="fill:#F98D16;" d="M374.237,294.351c-0.23-2.06-1.981-3.101-3.886-3.101c-1.899,0-3.294,2.151-3.101,3.886
						c0.23,2.06,1.981,3.101,3.886,3.101C373.036,298.237,374.431,296.086,374.237,294.351z"/>
					<path style="fill:#F98D16;" d="M369.743,310.568c-0.23-2.06-1.981-3.101-3.886-3.101c-1.9,0-3.294,2.151-3.101,3.886
						c0.23,2.06,1.981,3.101,3.886,3.101C368.542,314.454,369.937,312.303,369.743,310.568z"/>
					<path style="fill:#F98D16;" d="M387.523,321.315c-0.23-2.06-1.981-3.101-3.886-3.101c-1.9,0-3.294,2.151-3.101,3.886
						c0.23,2.06,1.981,3.101,3.886,3.101C386.323,325.201,387.717,323.05,387.523,321.315z"/>
					<path style="fill:#F98D16;" d="M409.602,326.59c-0.23-2.06-1.981-3.101-3.886-3.101c-1.9,0-3.294,2.151-3.101,3.886
						c0.23,2.06,1.981,3.101,3.886,3.101C408.401,330.476,409.796,328.325,409.602,326.59z"/>
					<path style="fill:#F98D16;" d="M405.695,312.327c-0.23-2.06-1.981-3.101-3.886-3.101c-1.899,0-3.294,2.151-3.1,3.886
						c0.23,2.06,1.981,3.101,3.886,3.101C404.493,316.213,405.888,314.062,405.695,312.327z"/>
					<path style="fill:#F98D16;" d="M388.891,299.627c-0.23-2.06-1.981-3.101-3.886-3.101c-1.9,0-3.294,2.151-3.1,3.886
						c0.23,2.06,1.981,3.101,3.886,3.101C387.69,303.512,389.085,301.362,388.891,299.627z"/>
					<path style="fill:#F98D16;" d="M404.522,295.914c-0.23-2.06-1.981-3.101-3.886-3.101c-1.9,0-3.294,2.151-3.101,3.886
						c0.23,2.06,1.981,3.101,3.886,3.101C403.321,299.8,404.716,297.649,404.522,295.914z"/>
					<path style="fill:#F98D16;" d="M399.051,279.111c-0.23-2.06-1.981-3.101-3.886-3.101c-1.9,0-3.294,2.151-3.1,3.886
						c0.23,2.06,1.981,3.101,3.886,3.101C397.85,282.997,399.245,280.846,399.051,279.111z"/>
					<path style="fill:#F98D16;" d="M424.452,308.419c-0.23-2.06-1.981-3.101-3.886-3.101c-1.9,0-3.294,2.151-3.101,3.886
						c0.23,2.06,1.981,3.101,3.886,3.101C423.251,312.305,424.645,310.154,424.452,308.419z"/>
					<path style="fill:#F98D16;" d="M423.28,293.57c-0.23-2.06-1.981-3.101-3.886-3.101c-1.9,0-3.294,2.151-3.101,3.886
						c0.23,2.06,1.981,3.101,3.886,3.101C422.078,297.456,423.473,295.305,423.28,293.57z"/>
					<path style="fill:#F98D16;" d="M439.497,282.433c-0.23-2.06-1.981-3.101-3.886-3.101c-1.9,0-3.294,2.151-3.1,3.886
						c0.23,2.06,1.981,3.101,3.886,3.101C438.296,286.318,439.69,284.168,439.497,282.433z"/>
					<path style="fill:#F98D16;" d="M418.199,279.697c-0.23-2.06-1.981-3.101-3.886-3.101c-1.899,0-3.294,2.151-3.1,3.886
						c0.23,2.06,1.981,3.101,3.886,3.101C416.998,283.583,418.393,281.432,418.199,279.697z"/>
					<path style="fill:#F98D16;" d="M409.212,264.652c-0.23-2.06-1.981-3.101-3.886-3.101c-1.899,0-3.294,2.151-3.1,3.886
						c0.23,2.06,1.981,3.101,3.886,3.101C408.01,268.538,409.405,266.387,409.212,264.652z"/>
					<path style="fill:#F98D16;" d="M430.118,269.146c-0.23-2.06-1.981-3.101-3.886-3.101c-1.9,0-3.294,2.151-3.101,3.886
						c0.23,2.06,1.981,3.1,3.886,3.1C428.917,273.032,430.312,270.881,430.118,269.146z"/>
					<path style="fill:#F98D16;" d="M420.935,251.366c-0.23-2.06-1.981-3.101-3.886-3.101c-1.9,0-3.294,2.151-3.101,3.886
						c0.23,2.06,1.981,3.101,3.886,3.101C419.734,255.252,421.128,253.101,420.935,251.366z"/>
					<path style="fill:#F98D16;" d="M442.037,264.848c-0.23-2.06-1.981-3.101-3.886-3.101c-1.9,0-3.294,2.151-3.101,3.886
						c0.23,2.06,1.981,3.101,3.886,3.101C440.836,268.733,442.23,266.583,442.037,264.848z"/>
					<path style="fill:#F98D16;" d="M436.566,249.607c-0.23-2.06-1.981-3.101-3.886-3.101c-1.9,0-3.294,2.151-3.1,3.886
						c0.23,2.06,1.981,3.101,3.886,3.101C435.365,253.493,436.759,251.342,436.566,249.607z"/>
					<path style="fill:#F98D16;" d="M422.303,236.907c-0.23-2.06-1.981-3.101-3.886-3.101c-1.899,0-3.294,2.151-3.1,3.886
						c0.23,2.06,1.981,3.101,3.886,3.101C421.101,240.793,422.496,238.642,422.303,236.907z"/>
					<path style="fill:#F98D16;" d="M453.76,259.181c-0.23-2.06-1.981-3.1-3.886-3.1c-1.9,0-3.294,2.151-3.101,3.886
						c0.23,2.06,1.981,3.101,3.886,3.101C452.559,263.067,453.954,260.916,453.76,259.181z"/>
					<path style="fill:#F98D16;" d="M332.033,248.24c-0.23-2.06-1.981-3.101-3.886-3.101c-1.9,0-3.294,2.151-3.101,3.886
						c0.23,2.06,1.981,3.101,3.886,3.101C330.832,252.125,332.227,249.975,332.033,248.24z"/>
					<path style="fill:#F98D16;" d="M308.001,244.527c-0.23-2.06-1.981-3.101-3.886-3.101c-1.899,0-3.294,2.151-3.1,3.886
						c0.23,2.06,1.981,3.101,3.886,3.101C306.799,248.413,308.194,246.262,308.001,244.527z"/>
					<path style="fill:#F98D16;" d="M277.129,242.964c-0.23-2.06-1.981-3.101-3.886-3.101c-1.9,0-3.294,2.151-3.101,3.886
						c0.23,2.06,1.981,3.101,3.886,3.101C275.928,246.85,277.323,244.699,277.129,242.964z"/>
					<path style="fill:#F98D16;" d="M262.671,253.711c-0.23-2.06-1.981-3.101-3.886-3.101c-1.9,0-3.294,2.151-3.1,3.886
						c0.23,2.06,1.981,3.101,3.886,3.101C261.47,257.596,262.864,255.446,262.671,253.711z"/>
					<path style="fill:#F98D16;" d="M296.277,253.906c-0.23-2.06-1.981-3.101-3.886-3.101c-1.899,0-3.294,2.151-3.101,3.886
						c0.23,2.06,1.981,3.101,3.886,3.101C295.076,257.792,296.471,255.641,296.277,253.906z"/>
					<path style="fill:#F98D16;" d="M265.211,234.758c-0.23-2.06-1.981-3.101-3.886-3.101c-1.9,0-3.294,2.151-3.101,3.886
						c0.23,2.06,1.981,3.101,3.886,3.101C264.009,238.644,265.404,236.493,265.211,234.758z"/>
					<path style="fill:#F98D16;" d="M321.678,267.583c-0.23-2.06-1.981-3.101-3.886-3.101c-1.899,0-3.294,2.151-3.1,3.886
						c0.23,2.06,1.981,3.101,3.886,3.101C320.477,271.469,321.871,269.318,321.678,267.583z"/>
					<path style="fill:#F98D16;" d="M296.863,276.376c-0.23-2.06-1.981-3.101-3.886-3.101c-1.899,0-3.294,2.151-3.101,3.886
						c0.23,2.06,1.981,3.101,3.886,3.101C295.662,280.261,297.057,278.111,296.863,276.376z"/>
					<path style="fill:#F98D16;" d="M279.083,266.997c-0.23-2.06-1.981-3.101-3.886-3.101c-1.9,0-3.294,2.151-3.101,3.886
						c0.23,2.06,1.981,3.101,3.886,3.101C277.882,270.883,279.277,268.732,279.083,266.997z"/>
					<path style="fill:#F98D16;" d="M248.603,267.778c-0.23-2.06-1.981-3.101-3.886-3.101c-1.899,0-3.294,2.151-3.101,3.886
						c0.23,2.06,1.981,3.101,3.886,3.101C247.402,271.664,248.796,269.513,248.603,267.778z"/>
					<path style="fill:#F98D16;" d="M246.258,289.662c-0.23-2.06-1.981-3.101-3.886-3.101c-1.899,0-3.294,2.151-3.101,3.886
						c0.23,2.06,1.981,3.101,3.886,3.101C245.057,293.548,246.452,291.397,246.258,289.662z"/>
					<path style="fill:#F98D16;" d="M260.521,278.916c-0.23-2.06-1.981-3.101-3.886-3.101c-1.899,0-3.294,2.151-3.101,3.886
						c0.23,2.06,1.981,3.101,3.886,3.101C259.32,282.801,260.715,280.651,260.521,278.916z"/>
					<path style="fill:#F98D16;" d="M278.302,291.616c-0.23-2.06-1.981-3.101-3.886-3.101c-1.9,0-3.294,2.151-3.101,3.886
						c0.23,2.06,1.981,3.101,3.886,3.101C277.1,295.502,278.495,293.351,278.302,291.616z"/>
					<path style="fill:#F98D16;" d="M309.954,289.662c-0.23-2.06-1.981-3.101-3.886-3.101c-1.899,0-3.294,2.151-3.101,3.886
						c0.23,2.06,1.981,3.101,3.886,3.101C308.753,293.548,310.148,291.397,309.954,289.662z"/>
					<path style="fill:#F98D16;" d="M331.838,303.73c-0.23-2.06-1.981-3.101-3.886-3.101c-1.899,0-3.294,2.151-3.1,3.886
						c0.23,2.06,1.981,3.101,3.886,3.101C330.637,307.616,332.032,305.465,331.838,303.73z"/>
					<path style="fill:#F98D16;" d="M313.667,308.419c-0.23-2.06-1.981-3.101-3.886-3.101c-1.9,0-3.294,2.151-3.101,3.886
						c0.23,2.06,1.981,3.101,3.886,3.101C312.466,312.305,313.86,310.154,313.667,308.419z"/>
					<path style="fill:#F98D16;" d="M290.806,305.293c-0.23-2.06-1.981-3.101-3.886-3.101c-1.9,0-3.294,2.151-3.101,3.886
						c0.23,2.06,1.981,3.101,3.886,3.101C289.605,309.179,291,307.028,290.806,305.293z"/>
					<path style="fill:#F98D16;" d="M261.303,305.098c-0.23-2.06-1.981-3.101-3.886-3.101c-1.9,0-3.294,2.151-3.101,3.886
						c0.23,2.06,1.981,3.101,3.886,3.101C260.102,308.983,261.496,306.833,261.303,305.098z"/>
					<path style="fill:#F98D16;" d="M245.477,316.039c-0.23-2.06-1.981-3.1-3.886-3.1c-1.899,0-3.294,2.151-3.1,3.886
						c0.23,2.06,1.981,3.101,3.886,3.101C244.275,319.925,245.67,317.774,245.477,316.039z"/>
					<path style="fill:#F98D16;" d="M274.785,320.142c-0.23-2.06-1.981-3.101-3.886-3.101c-1.9,0-3.294,2.151-3.101,3.886
						c0.23,2.06,1.981,3.101,3.886,3.101C273.583,324.028,274.978,321.877,274.785,320.142z"/>
					<path style="fill:#F98D16;" d="M300.553,322.97c-0.226-0.57-0.575-1.051-1.048-1.442c-0.065-0.065-0.13-0.13-0.195-0.195
						c-0.358-0.317-0.767-0.522-1.225-0.616c-0.445-0.176-0.91-0.229-1.394-0.157c-0.469,0.036-0.895,0.181-1.279,0.434
						c-0.417,0.185-0.766,0.462-1.048,0.832c-0.16,0.258-0.321,0.516-0.481,0.774c-0.263,0.589-0.36,1.204-0.292,1.846
						c0.073,0.295,0.146,0.59,0.219,0.885c0.226,0.57,0.575,1.051,1.048,1.442l0.195,0.195c0.358,0.317,0.767,0.522,1.225,0.616
						c0.445,0.176,0.91,0.229,1.394,0.157c0.469-0.036,0.895-0.181,1.279-0.434c0.417-0.185,0.766-0.462,1.048-0.832
						c0.16-0.258,0.321-0.516,0.481-0.774c0.263-0.589,0.36-1.204,0.292-1.845C300.698,323.56,300.625,323.265,300.553,322.97z"/>
					<path style="fill:#F98D16;" d="M324.804,325.027c-0.23-2.06-1.981-3.101-3.886-3.101c-1.899,0-3.294,2.151-3.101,3.886
						c0.23,2.06,1.981,3.101,3.886,3.101C323.603,328.913,324.997,326.762,324.804,325.027z"/>
					<path style="fill:#F98D16;" d="M309.564,337.141c-0.23-2.06-1.981-3.101-3.886-3.101c-1.9,0-3.294,2.151-3.101,3.886
						c0.23,2.06,1.981,3.101,3.886,3.101C308.363,341.027,309.757,338.876,309.564,337.141z"/>
					<path style="fill:#F98D16;" d="M283.382,337.532c-0.23-2.06-1.981-3.101-3.886-3.101c-1.9,0-3.294,2.151-3.101,3.886
						c0.23,2.06,1.981,3.101,3.886,3.101C282.181,341.418,283.575,339.267,283.382,337.532z"/>
					<path style="fill:#F98D16;" d="M256.027,332.843c-0.23-2.06-1.981-3.101-3.886-3.101c-1.9,0-3.294,2.151-3.101,3.886
						c0.23,2.06,1.981,3.101,3.886,3.101C254.826,336.728,256.221,334.578,256.027,332.843z"/>
					<path style="fill:#F98D16;" d="M237.27,341.831c-0.23-2.06-1.981-3.101-3.886-3.101c-1.9,0-3.294,2.151-3.101,3.886
						c0.23,2.06,1.981,3.101,3.886,3.101C236.069,345.716,237.464,343.566,237.27,341.831z"/>
					<path style="fill:#F98D16;" d="M268.532,354.726c-0.23-2.06-1.981-3.101-3.886-3.101c-1.9,0-3.294,2.151-3.101,3.886
						c0.23,2.06,1.981,3.1,3.886,3.1C267.331,358.612,268.726,356.461,268.532,354.726z"/>
					<path style="fill:#F98D16;" d="M296.668,355.312c-0.23-2.06-1.981-3.101-3.886-3.101c-1.899,0-3.294,2.151-3.1,3.886
						c0.23,2.06,1.981,3.101,3.886,3.101C295.467,359.198,296.862,357.047,296.668,355.312z"/>
					<path style="fill:#F98D16;" d="M331.838,347.888c-0.23-2.06-1.981-3.1-3.886-3.1c-1.899,0-3.294,2.151-3.1,3.886
						c0.23,2.06,1.981,3.1,3.886,3.1C330.637,351.773,332.032,349.622,331.838,347.888z"/>
					<path style="fill:#F98D16;" d="M320.31,359.22c-0.23-2.06-1.981-3.101-3.886-3.101c-1.9,0-3.294,2.151-3.101,3.886
						c0.23,2.06,1.981,3.101,3.886,3.101C319.109,363.106,320.504,360.955,320.31,359.22z"/>
					<path style="fill:#F98D16;" d="M344.929,358.438c-0.23-2.06-1.981-3.101-3.886-3.101c-1.899,0-3.294,2.151-3.1,3.886
						c0.23,2.06,1.981,3.101,3.886,3.101C343.728,362.324,345.123,360.173,344.929,358.438z"/>
					<path style="fill:#F98D16;" d="M288.071,370.162c-0.23-2.06-1.981-3.101-3.886-3.101c-1.9,0-3.294,2.151-3.101,3.886
						c0.23,2.06,1.981,3.101,3.886,3.101C286.87,374.048,288.264,371.897,288.071,370.162z"/>
					<path style="fill:#F98D16;" d="M248.798,353.945c-0.23-2.06-1.981-3.101-3.886-3.101c-1.9,0-3.294,2.151-3.101,3.886
						c0.23,2.06,1.981,3.101,3.886,3.101C247.597,357.83,248.992,355.68,248.798,353.945z"/>
					<path style="fill:#F98D16;" d="M232.972,362.932c-0.23-2.06-1.981-3.101-3.886-3.101c-1.899,0-3.294,2.151-3.101,3.886
						c0.23,2.06,1.981,3.101,3.886,3.101C231.771,366.818,233.165,364.667,232.972,362.932z"/>
					<path style="fill:#F98D16;" d="M257.004,372.116c-0.23-2.06-1.981-3.101-3.886-3.101c-1.899,0-3.294,2.151-3.101,3.886
						c0.23,2.06,1.981,3.101,3.886,3.101C255.803,376.001,257.198,373.851,257.004,372.116z"/>
				</g>
			</g>
			<g>
				<path style="fill:#19203F;" d="M394.38,658.503h-73.575L286.689,481.51l-16.84-97.064c7.169,0.211,14.676,0.028,22.21-0.787
					c20.256-2.165,40.737-8.8,55.61-24.122c4.259,8.223,8.139,17.796,10.796,28.592C368.431,428.572,394.38,658.503,394.38,658.503z
					"/>
				<path style="fill:#19203F;" d="M292.059,383.659l-5.37,97.851l-10.768,176.993h-73.561l16.531-281.76h0.014
					c0,0,22.941,6.902,50.943,7.703C277.018,384.657,284.524,384.475,292.059,383.659z"/>
				<g>
					<path style="fill:#FFFFFF;" d="M286.688,482.213c-0.343,0-0.644-0.251-0.695-0.601l-10.248-70.383l-36.705-11.674
						c-0.371-0.118-0.575-0.513-0.457-0.883c0.117-0.369,0.516-0.571,0.883-0.457l37.124,11.807
						c0.257,0.081,0.443,0.302,0.483,0.568l10.312,70.818c0.055,0.384-0.21,0.741-0.594,0.798
						C286.757,482.211,286.723,482.213,286.688,482.213z"/>
				</g>
			</g>
		</g>
	</g>
</g>
</svg>
