<?xml version="1.0" encoding="utf-8"?>
<!-- Generator: Adobe Illustrator 27.5.0, SVG Export Plug-In . SVG Version: 6.00 Build 0)  -->
<svg version="1.1" xmlns="http://www.w3.org/2000/svg" xmlns:xlink="http://www.w3.org/1999/xlink" x="0px" y="0px"
	 viewBox="0 0 500 500" style="enable-background:new 0 0 500 500;" xml:space="preserve">
<g id="OBJECTS">
	<path style="opacity:0.5;fill:#E4F3F9;" d="M44.752,119.59c-0.269-4.322,0.544-8.766,2.293-12.816
		c1.69-4.087,4.198-7.796,7.053-11.173c1.443-1.678,3.012-3.252,4.651-4.734c0.832-0.724,1.65-1.47,2.498-2.178l2.603-2.056
		c3.541-2.654,7.358-4.926,11.3-6.928c7.889-4.03,16.408-6.668,25.027-8.442c8.643-1.748,17.437-2.479,26.164-2.724
		c8.739-0.166,17.439,0.13,26.084,0.558c8.644,0.486,17.252,0.956,25.838,1.243c4.295,0.132,8.586,0.138,12.875,0.076
		c4.288-0.066,8.575-0.258,12.845-0.653c8.547-0.727,17.038-2.232,25.348-4.688c-7.934,3.503-16.445,5.701-25.045,7.124
		c-8.62,1.362-17.35,1.923-26.049,2.043c-8.706,0.177-17.373-0.208-26.004-0.414c-8.628-0.284-17.222-0.536-25.771-0.293
		c-8.552,0.144-17.053,0.84-25.395,2.364c-4.173,0.744-8.312,1.684-12.363,2.906c-4.044,1.237-8.024,2.679-11.878,4.407
		c-7.674,3.472-14.946,8.083-20.935,14.046c-2.982,2.987-5.612,6.355-7.6,10.104c-1.006,1.867-1.84,3.837-2.423,5.891
		C45.258,115.3,44.873,117.426,44.752,119.59z"/>
	<path style="opacity:0.5;fill:#E4F3F9;" d="M473.423,123.606c4.446,5.622,7.116,12.701,7.995,19.938
		c0.939,7.259,0.331,14.647-1.149,21.781c-0.753,3.568-1.716,7.094-2.9,10.54c-1.181,3.429-2.497,6.795-3.865,10.124
		c-2.774,6.641-5.862,13.075-8.585,19.588c-1.391,3.242-2.737,6.491-3.908,9.784c-1.178,3.291-2.171,6.626-3.032,9.984
		c-1.715,6.728-2.489,13.731-3.22,20.783c-0.358,3.538-0.629,7.043-0.777,10.555c-0.149,3.507-0.109,7.014,0.248,10.485
		c0.324,3.474,1.017,6.911,2.2,10.201c1.189,3.281,2.916,6.412,5.266,9.116c-0.641-0.617-1.311-1.219-1.941-1.862
		c-0.578-0.685-1.212-1.339-1.753-2.064c-1.073-1.456-2.046-3.004-2.845-4.643c-1.626-3.271-2.654-6.818-3.356-10.395
		c-1.325-7.19-1.276-14.518-0.934-21.669c0.275-7.168,0.971-14.407,2.502-21.584c1.622-7.16,4.153-14.021,6.954-20.653
		c2.871-6.612,5.973-13.037,8.846-19.497c1.45-3.223,2.839-6.46,4.089-9.737c1.214-3.272,2.31-6.584,3.227-9.95
		c0.913-3.368,1.537-6.8,2.018-10.25c0.493-3.453,0.627-6.945,0.481-10.426C478.796,136.776,476.939,129.845,473.423,123.606z"/>
	<path style="opacity:0.5;fill:#E4F3F9;" d="M83.68,424.86c-28.299-4.826-51.162-31.716-51.376-60.422
		c-0.236-31.63,23.102-58.26,31.466-88.765c7.548-27.529,2.515-56.956-5.568-84.333c-7.138-24.177-16.572-50.493-6.654-73.668
		c7.834-18.305,26.555-30.101,45.914-34.757c19.359-4.656,39.59-3.258,59.459-1.975c28.926,1.869,58.202,3.417,86.705-1.856
		c35.044-6.484,68.735-23.208,104.321-21.264c25.404,1.388,49.226,12.232,72.116,23.34c20.227,9.816,42.183,22.136,48.825,43.615
		c4.652,15.046,0.536,31.433-5.71,45.89c-6.246,14.457-14.626,28.064-19.046,43.179c-6.303,21.555-3.904,45.522,6.545,65.4
		c5.707,10.856,13.903,21.178,14.472,33.429c0.4,8.607-3.086,16.858-6.391,24.815c-9.5,22.871,0.269,50.124-8.264,73.373
		c-2.648,7.215-29.243,8.323-31.891,15.538L83.68,424.86z"/>
	<g>
		<g>
			<path style="fill:#67B4C1;" d="M86.537,425.892c-0.431-5.824-4.347-10.756-8.402-14.958c-4.055-4.202-8.555-8.279-10.71-13.707
				c-5.398-13.598,5.902-29.607,0.569-43.231c-3.638-9.295-14.096-14.663-17.454-24.063c-2.527-7.073-0.495-14.838,0.009-22.331
				c0.315-4.681,0.001-9.474-1.62-13.876c-1.621-4.403-4.648-8.399-8.81-10.565c7.932-0.753,15.467,4.352,20.041,10.876
				c4.573,6.524,6.812,14.346,9.328,21.905c2.516,7.56,5.541,15.258,11.229,20.836c5.42,5.315,13.135,8.605,16.524,15.398
				c4.399,8.817-0.267,20.092,3.953,28.996c4.228,8.922,16.019,12.555,19.654,21.735c1.617,4.084,1.324,8.688,0.354,12.971
				c-0.876,3.866-2.388,7.77-5.354,10.4L86.537,425.892z"/>
			<path style="fill:none;stroke:#E4F0F9;stroke-width:0.75;stroke-linecap:round;stroke-linejoin:round;stroke-miterlimit:10;" d="
				M51.272,290.096c4.791,3.097,6.441,9.359,6.555,15.062c0.114,5.704-0.903,11.482,0.227,17.074
				c3.545,17.53,26.275,26.574,28.661,44.299c0.94,6.986-1.583,14.218,0.084,21.067c1.559,6.406,6.478,11.339,10.687,16.414
				c4.209,5.075,8.054,11.39,6.819,17.866"/>
		</g>
		<g>
			<path style="fill:#79C2D3;" d="M102.379,424.813c-3.411-5.444-4.127-12.49-1.88-18.509c3.07-8.225,11.308-14.904,10.602-23.654
				c-0.386-4.788-3.488-8.943-4.464-13.645c-1.69-8.139,3.167-16.114,8.304-22.648c5.137-6.535,11.036-13.227,11.928-21.491
				c0.57-5.285-1.016-10.532-2.39-15.667c-1.374-5.135-2.55-10.578-1.18-15.714c1.37-5.136,6.097-9.76,11.384-9.213
				c-4.818,10.285-0.37,22.598,6.085,31.943c1.289,1.866,2.676,3.715,3.399,5.864c0.938,2.79,0.671,5.845,0.066,8.726
				c-2.632,12.538-11.335,23.543-11.956,36.339c-0.333,6.858,1.715,13.581,3.718,20.149c2.003,6.567,4.005,13.313,3.578,20.166
				c-0.427,6.852-3.79,13.943-9.979,16.914c-1.114,0.535-2.291,0.925-3.464,1.315L102.379,424.813z"/>
			<path style="fill:none;stroke:#E4F0F9;stroke-width:0.75;stroke-linecap:round;stroke-linejoin:round;stroke-miterlimit:10;" d="
				M128.759,292.761c-3.215,4.904-1.413,11.498,1.271,16.712c2.683,5.214,6.244,10.348,6.355,16.21
				c0.135,7.098-4.765,13.124-8.57,19.118c-4.701,7.406-8.074,16.021-7.465,24.773c0.287,4.119,1.44,8.12,2.445,12.125
				c1.722,6.858,3.032,13.921,2.48,20.97c-0.551,7.049-3.133,14.145-8.239,19.036"/>
		</g>
		<g>
			<path style="fill:#79C2D3;" d="M76.363,428.295c0.462-4.281-2.722-8.779-6.407-11.259c-3.634-2.446-7.764-3.477-11.703-4.837
				c-3.907-1.349-7.918-3.232-10.355-6.618c-3.161-4.392-2.777-9.998-1.678-14.69c1.07-4.568,2.687-9.049,1.781-13.57
				c-1.245-6.217-6.872-10.833-11.882-14.876c-4.881-3.939-9.869-8.503-10.03-13.892c-0.19-6.363,6.571-11.908,4.33-17.568
				c-1.298-3.278-5.431-5.648-5.784-8.91c2.776-1.165,6.284,0.399,8.492,2.301c3.156,2.718,5.273,6.292,5.906,10.065
				c0.393,2.34,0.233,4.755,0.938,7.142c1.502,5.083,6.818,9.309,12.82,11.489c2.989,1.086,6.274,1.796,8.789,3.726
				c3.134,2.405,4.39,6.193,4.947,9.775c0.569,3.665,0.636,7.495,2.305,11.2c4.166,9.245,19.897,7.933,27.795,16.38
				c6.291,6.728,14.313,22.258,13.812,30.939L76.363,428.295z"/>
			<path style="fill:none;stroke:#E4F0F9;stroke-width:0.75;stroke-linecap:round;stroke-linejoin:round;stroke-miterlimit:10;" d="
				M31.804,327.657c2.619,2.352,2.993,6.3,2.744,9.812c-0.249,3.512-0.922,7.151,0.244,10.472c2.039,5.808,8.643,8.31,13.624,11.926
				c6.646,4.824,10.995,12.68,11.556,20.873c0.209,3.047-0.057,6.233,1.162,9.033c1.953,4.485,6.987,6.579,11.408,8.672
				c4.992,2.363,9.814,5.298,13.506,9.405c3.692,4.108,6.17,9.516,5.901,15.032"/>
		</g>
	</g>
	<g>
		<g>
			<path style="fill:#67B4C1;" d="M396.457,411.706c2.509-5.273,1.55-11.497,0.109-17.156c-1.442-5.659-3.332-11.429-2.516-17.212
				c2.044-14.487,19.789-22.799,21.903-37.276c1.442-9.877-4.985-19.72-3.247-29.549c1.307-7.396,6.918-13.135,11.066-19.396
				c2.591-3.911,4.692-8.23,5.464-12.858c0.772-4.628,0.121-9.599-2.421-13.542c7.264,3.273,11.282,11.441,12.024,19.374
				c0.742,7.933-1.186,15.836-2.744,23.65c-1.558,7.814-2.743,15.999-0.563,23.663c2.076,7.302,7.15,13.98,6.73,21.56
				c-0.545,9.838-10.182,17.323-10.926,27.149c-0.745,9.845,7.7,18.84,6.311,28.615c-0.618,4.348-3.152,8.204-6.116,11.444
				c-2.676,2.925-5.923,5.567-9.802,6.384L396.457,411.706z"/>
			<path style="fill:none;stroke:#E4F0F9;stroke-width:0.75;stroke-linecap:round;stroke-linejoin:round;stroke-miterlimit:10;" d="
				M433.069,276.268c2.628,5.063,0.961,11.32-1.764,16.332c-2.726,5.012-6.471,9.528-8.258,14.946
				c-5.602,16.985,9.667,36.098,2.962,52.679c-2.643,6.535-8.416,11.568-10.359,18.344c-1.818,6.338,0.013,13.059,1.156,19.552
				c1.143,6.493,1.357,13.884-2.924,18.898"/>
		</g>
		<g>
			<path style="fill:#79C2D3;" d="M414.523,424.884c-2.408-5.004-1.824-11.483,1.532-17.015
				c4.587-7.561,14.056-13.701,14.963-21.746c0.496-4.401-1.839-8.221-1.949-12.544c-0.19-7.482,6.137-14.814,12.48-20.821
				c6.342-6.008,13.474-12.16,15.89-19.757c1.545-4.859,0.926-9.682,0.499-14.403c-0.427-4.721-0.6-9.724,1.717-14.446
				c2.317-4.722,7.896-8.972,13.083-8.47c-6.714,9.456-4.536,20.775,0.196,29.366c0.945,1.715,1.991,3.415,2.318,5.391
				c0.424,2.565-0.407,5.373-1.543,8.022c-4.944,11.526-15.676,21.644-18.656,33.408c-1.597,6.305-0.789,12.486,0.003,18.523
				c0.792,6.037,1.55,12.239-0.14,18.539c-1.69,6.3-6.36,12.818-13.098,15.549c-1.213,0.492-2.461,0.851-3.706,1.209
				L414.523,424.884z"/>
			<path style="fill:none;stroke:#E4F0F9;stroke-width:0.75;stroke-linecap:round;stroke-linejoin:round;stroke-miterlimit:10;" d="
				M465.25,303.485c-4.12,4.508-3.532,10.57-1.81,15.363s4.336,9.513,3.366,14.903c-1.174,6.525-7.185,12.065-12.095,17.576
				c-6.067,6.809-11.028,14.729-12.032,22.774c-0.473,3.787-0.057,7.465,0.21,11.147c0.457,6.304,0.465,12.798-1.386,19.278
				c-1.851,6.48-5.741,13.004-11.749,17.501"/>
		</g>
		<g>
			<path style="fill:#79C2D3;" d="M386.726,413.936c2.338-3.616,1.516-9.066-0.661-12.937c-2.147-3.818-5.372-6.597-8.278-9.582
				c-2.884-2.962-5.62-6.447-6.274-10.567c-0.849-5.345,2.015-10.179,5.106-13.876c3.009-3.599,6.468-6.875,7.692-11.32
				c1.683-6.113-1.268-12.767-3.925-18.63c-2.589-5.712-4.992-12.033-2.713-16.918c2.691-5.769,11.223-7.682,11.766-13.745
				c0.314-3.511-2.312-7.487-1.16-10.559c3.003,0.208,5.433,3.181,6.551,5.874c1.597,3.846,1.881,7.991,0.75,11.646
				c-0.702,2.267-1.93,4.352-2.373,6.801c-0.944,5.216,1.905,11.381,6.286,16.027c2.182,2.314,4.796,4.425,6.175,7.28
				c1.718,3.558,1.137,7.506,0.024,10.956c-1.139,3.53-2.802,6.981-2.977,11.04c-0.436,10.131,14.206,16.032,17.463,27.128
				c2.595,8.839,2.777,26.317-1.573,33.845L386.726,413.936z"/>
			<path style="fill:none;stroke:#E4F0F9;stroke-width:0.75;stroke-linecap:round;stroke-linejoin:round;stroke-miterlimit:10;" d="
				M392.171,304.009c1.281,3.279-0.159,6.974-1.96,9.998c-1.801,3.025-4.039,5.973-4.491,9.464
				c-0.79,6.105,3.984,11.309,6.808,16.778c3.767,7.297,4.12,16.27,0.938,23.84c-1.184,2.816-2.853,5.542-3.023,8.591
				c-0.272,4.884,3.283,9.018,6.291,12.875c3.396,4.355,6.384,9.145,7.835,14.473c1.451,5.329,1.233,11.274-1.487,16.08"/>
		</g>
	</g>
	<g>
		<polygon style="fill:#502947;" points="274.253,422.866 220.913,422.866 225.885,371.5 269.282,371.5 		"/>
		<polygon style="opacity:0.36;fill:#502947;" points="270.155,382.277 225.012,382.277 225.885,371.5 269.282,371.5 		"/>
		<path style="fill:#431D40;" d="M278.825,422.866h-62.483c-0.832,0-1.36-0.785-1.07-1.584l1.741-4.787
			c0.194-0.534,0.722-0.906,1.285-0.906h58.572c0.563,0,1.09,0.371,1.285,0.906l1.741,4.787
			C280.185,422.081,279.656,422.866,278.825,422.866z"/>
		<path style="fill:#502947;" d="M387.361,378.267H121.382c-1.709,0-3.095-1.386-3.095-3.095V194.54
			c0-1.709,1.386-3.095,3.095-3.095h265.979c1.709,0,3.095,1.385,3.095,3.095v180.632
			C390.455,376.882,389.07,378.267,387.361,378.267z"/>
		
			<rect x="177.986" y="145.784" transform="matrix(-1.836970e-16 1 -1 -1.836970e-16 529.0902 20.3477)" style="fill:#E4F0F9;" width="152.771" height="257.87"/>
		<g>
			<g>
				<rect x="137.171" y="206.755" style="fill:#539BB5;" width="152.945" height="104.606"/>
				<rect x="139.888" y="213.683" style="fill:#E4F0F9;" width="147.51" height="79.404"/>
				<g>
					<circle style="fill:#E86D5E;" cx="213.643" cy="253.385" r="13.851"/>
					<path style="fill:#DFEEF7;" d="M221.325,252l-10.323-5.96c-1.066-0.615-2.398,0.154-2.398,1.385v11.92
						c0,1.231,1.332,2,2.398,1.385l10.323-5.96C222.391,254.154,222.391,252.615,221.325,252z"/>
				</g>
				<g>
					
						<line style="fill:none;stroke:#2ed573;stroke-width:1.1991;stroke-miterlimit:10;" x1="142.322" y1="289.667" x2="284.58" y2="289.667"/>
					
						<line style="fill:none;stroke:#E86D5E;stroke-width:0.9671;stroke-miterlimit:10;" x1="192.041" y1="289.667" x2="284.58" y2="289.667"/>
					<path style="fill:#2ed573;" d="M193.451,289.667c0,0.779-0.632,1.411-1.411,1.411c-0.779,0-1.411-0.632-1.411-1.411
						s0.632-1.411,1.411-1.411C192.82,288.256,193.451,288.888,193.451,289.667z"/>
				</g>
				<rect x="283.399" y="207.987" style="fill:#DFEEF7;" width="4" height="4"/>
				<rect x="277.755" y="207.987" style="fill:#DFEEF7;" width="4" height="4"/>
				<rect x="272.111" y="207.987" style="fill:#DFEEF7;" width="4" height="4"/>
			</g>
			<g>
				<polyline style="fill:none;stroke:#502947;stroke-width:1.0222;stroke-miterlimit:10;" points="304.13,212.864 304.13,307.69 
					375.377,307.69 				"/>
				<path style="fill:#502947;" d="M372.248,303.164v-83.038c-4.139,2.286-7.003,6.542-8.797,11.06
					c-1.793,4.518-2.655,9.367-3.78,14.115c-1.057,4.464-2.356,8.866-3.888,13.177c-0.577,1.624-1.202,3.264-2.244,4.613
					c-1.125,1.457-2.674,2.492-4.269,3.346c-3.052,1.635-6.468,2.714-9.888,2.435c-4.101-0.335-8-2.589-12.101-2.246
					c-4.253,0.356-7.916,3.529-10.123,7.345c-2.207,3.815-3.203,8.241-4.167,12.584c-0.512,2.306-1.023,4.611-1.535,6.917v9.693
					H372.248z"/>
				<path style="fill:#FABC7E;" d="M311.385,303.164v-8.325c0.373-2.534,9.167-13.499,16.014-12.27
					c27.374,4.913,33.13-14.258,38.187-23.426c1.743-3.161,3.354-6.96,6.685-8.056v52.077H311.385z"/>
				<g>
					<rect x="296.465" y="217.488" style="fill:#E86D5E;" width="5.724" height="1.495"/>
					<rect x="296.465" y="242.535" style="fill:#E86D5E;" width="5.724" height="1.495"/>
					<rect x="296.465" y="267.583" style="fill:#E86D5E;" width="5.724" height="1.495"/>
					<rect x="296.465" y="292.63" style="fill:#E86D5E;" width="5.724" height="1.495"/>
				</g>
				<g>
					
						<rect x="370.897" y="309.987" transform="matrix(-1.836970e-16 1 -1 -1.836970e-16 682.2579 -61.0969)" style="fill:#E86D5E;" width="1.561" height="1.186"/>
					
						<rect x="351.022" y="309.987" transform="matrix(-1.836970e-16 1 -1 -1.836970e-16 662.3826 -41.2215)" style="fill:#E86D5E;" width="1.561" height="1.186"/>
					
						<rect x="331.146" y="309.987" transform="matrix(-1.836970e-16 1 -1 -1.836970e-16 642.5071 -21.3461)" style="fill:#E86D5E;" width="1.561" height="1.186"/>
					
						<rect x="311.271" y="309.987" transform="matrix(-1.836970e-16 1 -1 -1.836970e-16 622.6317 -1.4707)" style="fill:#E86D5E;" width="1.561" height="1.186"/>
				</g>
			</g>
			<g>
				<g>
					<rect x="162.754" y="321.823" style="fill:#539BB5;" width="55.694" height="4.935"/>
					<rect x="162.754" y="333.014" style="fill:#539BB5;" width="34.722" height="4.935"/>
				</g>
				<rect x="139.403" y="321.823" style="fill:#FABC7E;" width="16.126" height="16.126"/>
			</g>
			<g>
				<g>
					<rect x="250.845" y="321.823" style="fill:#539BB5;" width="39.271" height="4.935"/>
					<rect x="250.845" y="333.014" style="fill:#539BB5;" width="27.312" height="4.935"/>
				</g>
				<rect x="227.495" y="321.823" style="fill:#FABC7E;" width="16.126" height="16.126"/>
			</g>
			<g>
				<g>
					<rect x="324.701" y="321.823" style="fill:#539BB5;" width="50.675" height="4.935"/>
					<rect x="299.327" y="333.014" style="fill:#539BB5;" width="76.05" height="4.935"/>
				</g>
			</g>
		</g>
		<g>
			<polygon style="opacity:0.36;fill:#E4F0F9;" points="325.764,198.333 308.415,198.333 158.633,351.104 175.982,351.104 			"/>
			<polygon style="opacity:0.36;fill:#E4F0F9;" points="338.925,198.333 331.209,198.333 181.427,351.104 189.143,351.104 			"/>
		</g>
	</g>
	<g>
		<g>
			<path style="fill:#2ed573;" d="M342.602,121.939h-73.669c-1.105,0-2-0.895-2-2V77.342c0-1.105,0.895-2,2-2h73.669
				c1.105,0,2,0.895,2,2v42.598C344.602,121.044,343.707,121.939,342.602,121.939z"/>
			<path style="fill:#FFFFFF;" d="M291.021,98.641c0,2.548-2.066,4.614-4.614,4.614c-2.548,0-4.614-2.066-4.614-4.614
				c0-2.548,2.066-4.614,4.614-4.614C288.955,94.026,291.021,96.092,291.021,98.641z"/>
			<path style="fill:#FFFFFF;" d="M310.382,98.641c0,2.548-2.066,4.614-4.614,4.614c-2.548,0-4.614-2.066-4.614-4.614
				c0-2.548,2.066-4.614,4.614-4.614C308.316,94.026,310.382,96.092,310.382,98.641z"/>
			<path style="fill:#FFFFFF;" d="M329.743,98.641c0,2.548-2.066,4.614-4.614,4.614c-2.548,0-4.614-2.066-4.614-4.614
				c0-2.548,2.066-4.614,4.614-4.614C327.677,94.026,329.743,96.092,329.743,98.641z"/>
			<polygon style="fill:#2ed573;" points="336.541,121.939 339.541,135.73 319.933,121.939 			"/>
		</g>
		<g>
			<path style="fill:#FABC7E;" d="M228.196,145.939h73.669c1.104,0,2-0.895,2-2v-42.598c0-1.105-0.896-2-2-2h-73.669
				c-1.105,0-2,0.895-2,2v42.598C226.196,145.044,227.091,145.939,228.196,145.939z"/>
			<path style="fill:#FFFFFF;" d="M279.777,122.64c0,2.548,2.066,4.614,4.614,4.614c2.548,0,4.614-2.066,4.614-4.614
				c0-2.548-2.066-4.614-4.614-4.614C281.843,118.026,279.777,120.092,279.777,122.64z"/>
			<path style="fill:#FFFFFF;" d="M260.416,122.64c0,2.548,2.066,4.614,4.614,4.614c2.548,0,4.614-2.066,4.614-4.614
				c0-2.548-2.066-4.614-4.614-4.614C262.482,118.026,260.416,120.092,260.416,122.64z"/>
			<path style="fill:#FFFFFF;" d="M241.055,122.64c0,2.548,2.066,4.614,4.614,4.614c2.548,0,4.614-2.066,4.614-4.614
				c0-2.548-2.066-4.614-4.614-4.614C243.121,118.026,241.055,120.092,241.055,122.64z"/>
			<polygon style="fill:#FABC7E;" points="234.257,145.939 231.257,159.73 250.865,145.939 			"/>
		</g>
	</g>
	<g>
		<g>
			<path style="fill:#FABC7E;" d="M425.059,422.866H301.421c-0.749,0-1.356-0.607-1.356-1.356v-87.389
				c0-0.749,0.607-1.356,1.356-1.356h123.638c0.749,0,1.356,0.607,1.356,1.356v87.389
				C426.415,422.259,425.808,422.866,425.059,422.866z"/>
			<path style="fill:#EDA063;" d="M425.184,422.089l-61.764-38.987c-0.112-0.071-0.248-0.071-0.36,0l-61.764,38.987
				c-0.331,0.209-0.199,0.777,0.18,0.777h123.528C425.383,422.866,425.515,422.298,425.184,422.089z"/>
			<path style="opacity:0.36;fill:#EDA063;" d="M300.064,332.766l57.923,44.837c3.164,2.45,7.341,2.45,10.505,0l57.923-44.837
				H300.064z"/>
		</g>
		<circle style="fill:#E86D5E;" cx="413.805" cy="332.766" r="17.114"/>
	</g>
	<g>
		<path style="fill:#2ed573;" d="M179.195,148.145c-0.443,1.646-1.097,3.203-1.93,4.647c-0.217,0.376-0.18,0.843,0.107,1.167
			l3.219,3.637c0.35,0.396,0.332,0.996-0.042,1.37l-4.298,4.297c-0.374,0.374-0.974,0.392-1.37,0.042l-3.637-3.219
			c-0.325-0.287-0.792-0.324-1.167-0.107c-1.443,0.833-3.001,1.486-4.647,1.93c-0.418,0.113-0.723,0.468-0.75,0.901l-0.295,4.843
			c-0.032,0.528-0.469,0.939-0.998,0.939h-6.077c-0.529,0-0.966-0.411-0.998-0.939l-0.295-4.843
			c-0.026-0.432-0.332-0.788-0.75-0.901c-1.646-0.443-3.203-1.097-4.647-1.93c-0.376-0.217-0.843-0.18-1.167,0.107l-3.637,3.219
			c-0.396,0.35-0.996,0.332-1.37-0.042l-4.298-4.297c-0.374-0.374-0.392-0.974-0.042-1.37l3.219-3.637
			c0.287-0.325,0.324-0.792,0.107-1.167c-0.833-1.443-1.486-3.001-1.93-4.647c-0.113-0.418-0.468-0.723-0.901-0.75l-4.843-0.295
			c-0.528-0.032-0.939-0.469-0.939-0.998v-6.077c0-0.529,0.411-0.966,0.939-0.998l4.843-0.295c0.432-0.026,0.788-0.332,0.901-0.75
			c0.443-1.646,1.097-3.203,1.93-4.647c0.217-0.376,0.18-0.843-0.107-1.167l-3.219-3.636c-0.35-0.396-0.332-0.996,0.042-1.37
			l4.298-4.298c0.374-0.374,0.974-0.392,1.37-0.042l3.636,3.219c0.325,0.287,0.792,0.324,1.167,0.107
			c1.443-0.833,3.001-1.486,4.647-1.929c0.418-0.113,0.723-0.468,0.75-0.901l0.295-4.843c0.032-0.528,0.47-0.939,0.998-0.939h6.077
			c0.529,0,0.966,0.412,0.998,0.939l0.295,4.843c0.026,0.432,0.332,0.788,0.75,0.901c1.646,0.443,3.203,1.097,4.647,1.93
			c0.376,0.217,0.843,0.18,1.167-0.107l3.636-3.219c0.396-0.35,0.996-0.332,1.37,0.042l4.298,4.298
			c0.374,0.374,0.392,0.974,0.042,1.37l-3.219,3.636c-0.287,0.325-0.324,0.792-0.107,1.167c0.833,1.443,1.486,3.001,1.93,4.647
			c0.113,0.418,0.468,0.723,0.901,0.75l4.843,0.295c0.528,0.032,0.939,0.469,0.939,0.998v6.077c0,0.529-0.411,0.966-0.939,0.998
			l-4.843,0.295C179.663,147.422,179.307,147.727,179.195,148.145z M160.35,133.756c-5.14,0-9.307,4.167-9.307,9.307
			c0,5.14,4.167,9.307,9.307,9.307c5.14,0,9.307-4.167,9.307-9.307C169.657,137.923,165.49,133.756,160.35,133.756z"/>
		<path style="fill:#2ed573;" d="M135.674,166.167c-0.493,0.937-1.101,1.791-1.802,2.552c-0.182,0.198-0.224,0.486-0.094,0.722
			l1.454,2.642c0.158,0.288,0.066,0.649-0.212,0.824l-3.189,2.018c-0.277,0.176-0.644,0.105-0.836-0.161l-1.764-2.446
			c-0.158-0.218-0.436-0.304-0.693-0.224c-0.988,0.308-2.02,0.492-3.078,0.536c-0.269,0.011-0.502,0.185-0.577,0.443l-0.839,2.894
			c-0.091,0.315-0.412,0.505-0.733,0.433l-3.682-0.828c-0.32-0.072-0.529-0.381-0.477-0.705l0.481-2.974
			c0.043-0.265-0.093-0.522-0.331-0.648c-0.937-0.493-1.791-1.101-2.552-1.802c-0.198-0.183-0.486-0.224-0.722-0.094l-2.642,1.454
			c-0.288,0.158-0.649,0.065-0.824-0.212l-2.018-3.189c-0.176-0.277-0.105-0.643,0.161-0.836l2.446-1.764
			c0.218-0.158,0.304-0.436,0.224-0.693c-0.308-0.988-0.492-2.02-0.536-3.078c-0.011-0.269-0.185-0.502-0.443-0.577l-2.894-0.839
			c-0.315-0.091-0.505-0.412-0.433-0.733l0.828-3.682c0.072-0.32,0.381-0.529,0.705-0.477l2.974,0.481
			c0.265,0.043,0.522-0.094,0.648-0.331c0.493-0.937,1.101-1.791,1.802-2.552c0.182-0.198,0.224-0.486,0.094-0.722l-1.454-2.642
			c-0.158-0.288-0.065-0.649,0.212-0.824l3.189-2.018c0.277-0.176,0.644-0.105,0.836,0.161l1.764,2.446
			c0.158,0.218,0.436,0.304,0.693,0.224c0.988-0.308,2.021-0.492,3.078-0.536c0.269-0.011,0.502-0.185,0.577-0.443l0.839-2.894
			c0.091-0.315,0.412-0.505,0.733-0.433l3.682,0.828c0.32,0.072,0.529,0.381,0.477,0.705l-0.481,2.974
			c-0.043,0.265,0.093,0.523,0.331,0.648c0.937,0.493,1.791,1.101,2.552,1.802c0.198,0.182,0.486,0.224,0.722,0.094l2.642-1.454
			c0.288-0.158,0.649-0.065,0.824,0.212l2.018,3.189c0.176,0.277,0.105,0.643-0.161,0.836l-2.446,1.764
			c-0.218,0.158-0.304,0.436-0.224,0.693c0.308,0.988,0.492,2.02,0.536,3.078c0.011,0.269,0.185,0.502,0.443,0.577l2.894,0.839
			c0.315,0.091,0.505,0.412,0.433,0.733l-0.828,3.682c-0.072,0.32-0.381,0.529-0.705,0.477l-2.974-0.481
			C136.056,165.793,135.799,165.929,135.674,166.167z M125.886,156.357c-2.299-0.517-4.583,0.927-5.1,3.227
			c-0.517,2.299,0.928,4.583,3.227,5.1c2.299,0.517,4.583-0.928,5.1-3.227C129.63,159.158,128.185,156.874,125.886,156.357z"/>
	</g>
	<g>
		<path style="fill:#F49171;" d="M59.398,158.201c0,0-0.436-5.631-0.315-6.386c0.121-0.755,1.584-2.747,1.584-3.924
			c0-1.177-0.272-4.739-0.302-5.132c-0.03-0.392-1.082-0.088-1.272,0.83c-0.207,1.002,0.095,2.128,0.095,2.128
			s-0.332-7.637-0.423-8.452c-0.091-0.815-1.6-1.871-1.69,0c-0.091,1.872-0.121,5.252-0.121,5.252s-0.35-5.395-0.502-7.025
			c-0.153-1.63-1.756-2.031-1.858,0.057c-0.102,2.089,0,7.081,0,7.081s-0.351-6.19-0.383-6.956
			c-0.032-0.766-1.404-1.436-1.532,0.032c-0.128,1.468,0,7.243,0,7.243s-0.272-4.05-0.336-4.816
			c-0.064-0.766-1.363-0.745-1.363,0.34c0,1.085-0.053,4.191-0.181,4.83c-0.128,0.638,0.316,4.369,0.604,5.645
			c0.287,1.276,1.423,3.467,1.391,4.094c-0.032,0.628-0.064,6.786-0.064,6.786L59.398,158.201z"/>
		<g>
			<path style="fill:#502947;" d="M67.42,272.383c-0.355,4.779-1.614,10.796-2.693,22.878
				c-1.008,11.294,0.163,116.175,0.163,116.175h12.821c0,0,10.883-101.122,11.086-116.337c0.203-15.215,0.046-20.775,0.046-20.775
				L67.42,272.383z"/>
			<path style="fill:#502947;" d="M101.317,272.383c1.35,4.164,2.446,10.166,2.82,22.736c0.474,15.954-0.112,116.897-0.29,116.316
				H90.739c0,0-7.268-96.083-7.471-111.298c-0.203-15.215,1.147-27.755,1.147-27.755H101.317z"/>
			<path style="fill:#FABC7E;" d="M77.712,212.181c0,0-4.399-2.756-6.165-4.757c-1.593-1.805-9.144-20.856-9.3-23.206
				c-0.157-2.35-3.082-31.176-3.082-31.176c-0.657,1.478-3.102,3.224-6.35,4.159l-1.325-0.243c0,0-0.126,27.91,0.187,30.259
				c0.313,2.35,7.32,24.665,9.61,33.64c1.95,7.644,5.417,26.393,5.793,35.846c0.312,7.832-0.008,19.013-0.008,19.013
				s0.759,1.86,9.833,1.875c11.997,0.02,25.441-2.419,25.441-2.419s-1.537-13.717-1.875-20.296
				c-0.338-6.579,2.79-34.087,1.606-36.481c-1.17-2.365-10.771-4.043-10.771-4.043c-0.352-0.41-0.787-0.711-1.318-0.884
				l-11.52-2.298L77.712,212.181z"/>
			<path style="fill:#DB914F;" d="M63.221,209.786l5.375,16.313C68.596,226.099,63.659,215.224,63.221,209.786z"/>
			<path style="fill:#DB914F;" d="M63.435,215.845l3.75,8.902C67.185,224.747,63.74,218.813,63.435,215.845z"/>
			<g>
				<polygon style="fill:#E77257;" points="90.363,214.86 89.205,215.845 87.534,214.86 78.468,211.169 78.468,207.532 
					80.656,202.703 89.288,208.132 89.988,213.468 				"/>
				<path style="fill:#F49171;" d="M96.792,193.131c1.047,5.315-0.892,16.773-5.157,17.946c-2.842,0.782-10.22-3.457-10.491-7.585
					c0,0-2.801-3.913-2.405-7.957c0.312-3.183,1.146-5.334,1.146-5.334S95.441,186.271,96.792,193.131z"/>
				<g>
					<path style="fill:#E77257;" d="M92.97,199.872c-0.114,0.53,0.03,1.068,0.184,1.578c0.157,0.515,0.359,1.017,0.569,1.521
						c0.105,0.253,0.219,0.503,0.309,0.773c0.047,0.136,0.087,0.275,0.101,0.445c0,0.092,0.024,0.173-0.045,0.339
						c-0.066,0.114-0.149,0.184-0.231,0.236c-0.323,0.169-0.606,0.195-0.895,0.195c-0.285,0.002-0.564-0.028-0.838-0.095
						c-0.014-0.003-0.022-0.017-0.019-0.031c0.002-0.01,0.011-0.017,0.02-0.019c0.52-0.126,1.126-0.208,1.46-0.443
						c0.031-0.029,0.042-0.055,0.044-0.062c-0.012,0.039-0.003-0.022-0.012-0.064c-0.018-0.102-0.05-0.228-0.079-0.353l-0.214-0.778
						c-0.154-0.525-0.315-1.054-0.423-1.599c-0.094-0.541-0.168-1.123,0.02-1.656c0.005-0.013,0.019-0.02,0.032-0.016
						C92.966,199.845,92.972,199.86,92.97,199.872z"/>
				</g>
				<path style="fill:#FFFFFF;" d="M94.524,206.166c-0.786,0.326-3.35-0.036-4.438-0.428c0,0,1.082,1.794,2.571,1.794
					C94.341,207.532,94.524,206.166,94.524,206.166z"/>
				<path style="fill:#281828;" d="M90.81,195.387c0.796,0.112,0.724,1.074-0.099,0.976c-0.611-0.073-2.389-0.55-3.59-0.021
					C85.92,196.871,87.428,194.91,90.81,195.387z"/>
				<ellipse style="fill:#21151F;" cx="90.174" cy="198.198" rx="0.645" ry="1.042"/>
				<path style="fill:#281828;" d="M93.923,195.365c-0.518,0.102-0.245,1.068,0.278,0.917c0.394-0.114,1.356-0.458,2.15,0.085
					C97.147,196.91,96.125,194.932,93.923,195.365z"/>
				<ellipse style="fill:#21151F;" cx="95.588" cy="198.198" rx="0.645" ry="1.042"/>
				<path style="fill:#281828;" d="M96.79,193.13c0,0-7.329,0.607-11.511-2.45c0.399,2.007-0.574,5.425-2.491,5.953
					c0.028,1.442-0.232,2.256-1.663,2.835l0.02,4.024c0,0,0.081,2.263-2.675,4.04c0,0-2.256-6.932-3.328-8.982
					c-1.328-2.54-1.73-8.198,0.514-11.356c2.239-3.158,4.928-2.443,4.928-2.443s1.294-3.643,9.129-2.275
					c4.621,0.807,8.309,2.445,8.922,6.605C99.057,191.983,96.79,193.13,96.79,193.13z"/>
				<g>
					<path style="fill:#F49171;" d="M82.269,197.887c-0.856-1.326-3.731-1.681-3.958,0c-0.227,1.681,0.849,5.849,2.833,5.605
						C83.129,203.249,83.092,199.16,82.269,197.887z"/>
					<path style="fill:#E77257;" d="M82.055,198.975c-0.407-1.355-2.083-1.889-2.889-1.263c-0.66,0.512-0.424,1.965-0.269,1.405
						c0.155-0.56,0.447-1.07,0.815-1.092c0.368-0.022,1.384,0.434,1.103,0.974c-0.112,0.215-1.066,0.297-1.163,0.809
						c-0.097,0.513,0.717,3.225,1.589,2.171C82.114,200.925,82.251,199.627,82.055,198.975z"/>
				</g>
			</g>
			<path style="fill:#E86D5E;" d="M84.415,217.464l3.624,2.858l-0.677,34.762l3.603,4.448l3.195-4.558l-3.061-34.707
				c0,0,0.819-1.107,0.593-2.467c-0.049-0.297-0.398-1.032-0.398-1.032l-1.543,0.376l-2.51-0.686h-1.517L84.415,217.464z"/>
			<path style="fill:#DB4E46;" d="M91.099,220.266l-2.844-0.251c0,0-0.7-0.835-0.748-1.867c-0.051-1.08,0.342-1.52,0.342-1.52
				l-0.598-0.236l-1.527,0.065l-1.309,1.007l3.624,2.858L91.099,220.266z"/>
			<polygon style="fill:#DB914F;" points="87.241,215.29 83.702,218.013 77.907,213.929 77.712,212.181 77.712,214.124 
				83.702,218.907 87.241,216.457 89.751,217.552 91.294,216.767 92.453,216.613 90.936,214.474 89.536,216.068 			"/>
		</g>
		<path style="fill:#FABC7E;" d="M109.416,219.208c0,0,9.143,24.57,9.143,27.301s-0.525,7.406-2.259,7.991
			c-1.734,0.584-6.238,0.983-7.422-0.478c-0.302-0.373-7.246-10.927-7.652-13.715c-0.58-3.974,1.336-14.809,0.851-19.449
			c-0.135-1.288,0.045-3.412,0.045-3.412L109.416,219.208z"/>
		<path style="fill:#DB914F;" d="M97.239,237.996c-0.09,4.34,1.77,11.37,3.22,16.21c-0.06-2.85,0.32-8.27,0.75-14.06
			c0,0.05,0.01,0.11,0.02,0.16c0.73,2.49,4.85,9.33,5.88,11.01c0.1,0.17,0.18,0.29,0.21,0.34c0.01,0.02,0.02,0.03,0.02,0.03
			c-0.83-2.23,0-4.05,0-4.05c0.21,2.25,0.95,3.51,1.04,3.66c-0.96-2.1-0.51-4.71-0.51-4.71c-2.634-8.579-4.607-17.156-5.79-25.73
			l2.45-2.83l-2.41-0.58c0,0-0.03,0.39-0.05,0.93c-0.68-1.33-4.02-2.44-6.79-3.16c1.574,0.629,3.184,2.229,3.76,5.18
			C99.693,223.748,97.389,230.946,97.239,237.996z"/>
		<path style="fill:#A8662F;" d="M102.122,217.446c0,0-1.366,7.089,4.114,7.95c3.525,0.554,3.181-6.187,3.181-6.187L102.122,217.446
			z"/>
		<g>
			<path style="fill:#3F90A5;" d="M108.817,213.097l1.566,9.775c0.076,0.477-0.292,0.91-0.776,0.91h-3.828
				c-0.347,0-0.653-0.227-0.752-0.559l-2.916-9.705c-0.15-0.5,0.22-1.004,0.742-1.011l5.177-0.07
				C108.42,212.431,108.755,212.712,108.817,213.097z"/>
			<path style="fill:#2ed573;" d="M107.373,213.1l1.565,9.773c0.076,0.477-0.292,0.91-0.776,0.91h-2.384
				c-0.347,0-0.653-0.227-0.752-0.559l-2.917-9.709c-0.15-0.499,0.218-1.003,0.739-1.012l3.735-0.064
				C106.975,212.432,107.312,212.714,107.373,213.1z"/>
			<polygon style="opacity:0.36;fill:#2ed573;" points="102.11,213.514 102.622,215.216 108.34,214.936 109.02,214.365 
				108.817,213.097 			"/>
			<path style="fill:#F49171;" d="M108.971,214.006c0,0,1.17,0.478,1.422,1.062c0.251,0.584,0.012,1.434,0.145,1.911
				c0.133,0.478,0.491,4.1,0.384,4.525s-1.531,0.997-1.86,0.944c-0.329-0.053-1.683,0.087-2.028,0.004
				c-0.345-0.083-0.956-1.358,0-1.464c0,0-1.274,0.186-1.699,0.186c-0.425,0-1.142-2.065,0.557-2.267c0,0-1.168,0.128-1.699,0.202
				c-0.531,0.074-1.009-2.209,1.089-2.395c0,0-0.451-0.053-0.903,0.027c-0.451,0.08-1.009-1.646,0.451-1.859
				c0.66-0.096,2.012-0.166,2.811-0.344C108.609,214.324,108.971,214.006,108.971,214.006z"/>
			<path style="opacity:0.36;fill:#F49171;" d="M103.859,217.606h0.03c0,0,2.7-0.47,2.95-2.08c0,0,1.5-0.75,1.79-0.29
				c0.3,0.46,0.32,2.52,0.32,2.52s0.85,1.26,0.48,2.49c0,0,0.44,1.86-0.37,2.2c0.33,0.06,1.76-0.52,1.86-0.94
				c0.11-0.43-0.25-4.05-0.38-4.53c-0.13-0.47,0.11-1.32-0.15-1.91c-0.25-0.58-1.42-1.06-1.42-1.06s-0.36,0.32-1.33,0.53
				c-0.8,0.18-2.15,0.25-2.81,0.35c-1.46,0.21-0.9,1.93-0.45,1.85c0.45-0.08,0.9-0.02,0.9-0.02
				C104.469,216.786,104.049,217.166,103.859,217.606z"/>
			<path style="fill:#502947;" d="M103.564,213.918h4.776v-12.986h-4.776c-3.586,0-6.493,2.907-6.493,6.493l0,0
				C97.071,211.011,99.978,213.918,103.564,213.918z"/>
			<path style="fill:#2ed573;" d="M132.074,194.607v25.636c0,0-5.875-3.072-11.353-4.59c-4.162-1.154-12.381-1.734-12.381-1.734
				s-1.506-2.249-1.506-6.492c0-4.27,1.506-6.495,1.506-6.495s8.218-0.58,12.381-1.734
				C126.198,197.679,132.074,194.607,132.074,194.607z"/>
			<path style="fill:#431D40;" d="M108.34,200.931c0,0-1.506,2.225-1.506,6.495c0,4.243,1.506,6.492,1.506,6.492
				c0.423,0.232,0.753,0.059,0.753,0.059s-1.506-2.307-1.506-6.55c0-4.27,1.506-6.553,1.506-6.553S108.676,200.698,108.34,200.931z"
				/>
			<path style="fill:#3F90A5;" d="M136.241,207.425c0,7.079-2.447,12.818-5.464,12.818c-3.018,0-5.464-5.739-5.464-12.818
				c0-7.079,2.446-12.818,5.464-12.818C133.794,194.607,136.241,200.346,136.241,207.425z"/>
			<ellipse style="fill:#502947;" cx="131.082" cy="207.425" rx="4.683" ry="11.908"/>
			<path style="fill:#2ed573;" d="M126.399,207.426c0,0.96,0.04,1.88,0.14,2.77l3.29-0.11l3.75-0.13v-5.06l-3.75-0.13l-3.29-0.11
				C126.439,205.546,126.399,206.476,126.399,207.426z"/>
			<ellipse style="fill:#3F90A5;" cx="133.579" cy="207.425" rx="1.326" ry="2.53"/>
		</g>
		<path style="fill:#F49171;" d="M104.996,223.108c-0.796-0.361-1.041-1.053-1.644-1.888c-0.718-0.995-1.496-2.134-1.671-3.597
			c-0.144-1.204,0.585-1.797,0.972-2.301l0.177,0.59c0,0,1.092-0.64,1.276-0.668c0.184-0.028,1.723,0.028,2.128,0
			c0.405-0.028-0.182,1.638-1.619,1.798c-0.732,0.081-1.125,1.068-1.125,1.068L104.996,223.108z"/>
		<path style="fill:#281828;" d="M102.346,274.31c0,0-5.432,0.955-8.715,1.266c-3.283,0.31-20.604,1.093-26.577-0.583l-0.35,2.938
			c6.23,1.676,24.046,0.89,27.47,0.58c3.424-0.31,8.539-1.292,8.539-1.292L102.346,274.31z"/>
		<path style="fill:#3F90A5;" d="M86.108,279.108l5.16-0.155c0.276-0.008,0.493-0.239,0.485-0.515l-0.07-2.334
			c-0.008-0.276-0.239-0.493-0.515-0.485l-5.16,0.155c-0.276,0.008-0.493,0.239-0.485,0.515l0.07,2.334
			C85.601,278.899,85.832,279.116,86.108,279.108z"/>
		<path style="fill:#A8662F;" d="M51.489,156.958c-0.262-0.708,1.287-3.119,1.287-3.119l0.038,3.361
			C52.815,157.201,51.728,157.602,51.489,156.958z"/>
		<g>
			<path style="fill:#281828;" d="M91.658,410.699l-0.487,11.49h27.869c0,0,0.959-4.309-4.581-4.822s-9.604-2.389-11.04-3.723
				c-1.436-1.334-1.4-2.946-1.4-2.946H91.658z"/>
			<polygon style="fill:#21151F;" points="91.169,422.186 91.169,422.866 97.37,422.866 97.37,422.294 105.779,422.866 
				119.039,422.866 119.039,422.186 			"/>
		</g>
		<polygon style="fill:#21151F;" points="77.315,422.186 77.315,422.866 73.442,422.866 73.065,422.372 72.225,422.866 
			59.909,422.866 59.909,422.186 		"/>
		<g>
			<path style="fill:#281828;" d="M76.828,410.699l0.487,11.49H59.909c0,0,0.665-4.166,3.375-5.745
				c2.917-1.7,3.183-5.745,3.183-5.745H76.828z"/>
		</g>
	</g>
	<path style="fill:#E86D5E;" d="M396.691,139.801c-5.977-5.977-15.667-5.977-21.643,0c-5.977,5.977-5.977,15.667,0,21.643
		l10.822,10.822l10.822,10.822l10.822-10.822l10.822-10.822c5.977-5.977,5.977-15.667,0-21.643h0
		C412.358,133.825,402.668,133.825,396.691,139.801z"/>
	<g>
		<path style="fill:#F49171;" d="M416.427,222.011c0,0,8.495-0.137,11.158-0.308c3.913-0.251,10.635-4.582,11.792-6.474
			c2.759-4.518,2.641-11.898,3.3-15.19c0.367-1.831,6.536,0.604,6.615,5.546c0.085,5.3-1.382,13.236,1.369,13.555
			c2.964,0.344,7.45,0.707,9.912,0.707c2.463,0,2.973,6.667,0.285,7.47c1.84,0,0.768,7.677-1.461,8.008
			c1.231,0.405,0.161,6.115-1.722,6.85c0,0,1.198,2.901-1.797,4.683c-3.509,2.089-26.728,0-26.728,0h-12.724V222.011z"/>
		<rect x="406.119" y="220.524" style="fill:#2ed573;" width="20.83" height="29.539"/>
		<path style="fill:#502947;" d="M424.072,245.814c0,1.373-1.113,2.486-2.486,2.486c-1.373,0-2.486-1.113-2.486-2.486
			c0-1.373,1.113-2.486,2.486-2.486C422.959,243.327,424.072,244.441,424.072,245.814z"/>
	</g>
	<rect x="37.514" y="422.866" style="fill:#3F90A5;" width="422.606" height="5.827"/>
</g>
</svg>
